<?xml version="1.0" encoding="UTF-8" standalone="no"?>
<!DOCTYPE svg PUBLIC "-//W3C//DTD SVG 1.1//EN" "http://www.w3.org/Graphics/SVG/1.1/DTD/svg11.dtd">
<!-- Created with Vectornator (http://vectornator.io/) -->
<svg height="100%" stroke-miterlimit="10" style="fill-rule:nonzero;clip-rule:evenodd;stroke-linecap:round;stroke-linejoin:round;" version="1.1" viewBox="0 0 500 500" width="100%" xml:space="preserve" xmlns="http://www.w3.org/2000/svg" xmlns:vectornator="http://vectornator.io" xmlns:xlink="http://www.w3.org/1999/xlink">
<defs/>
<g id="Sin-título" vectornator:layerName="Sin título">
<g opacity="1" vectornator:layerName="Floor">
<g opacity="1" vectornator:layerName="path">
<clipPath clip-rule="nonzero" id="ClipPath">
<path d="M0 0L500 0L500 500L0 500L0 0Z"/>
</clipPath>
<g clip-path="url(#ClipPath)">
<path d="M410.245 249.133C320.618 197.599 175.304 197.599 85.6751 249.133C-3.95391 300.668-3.95291 384.221 85.6761 435.754C175.306 487.287 320.619 487.287 410.247 435.754C499.872 384.221 499.872 300.668 410.245 249.133" fill="#f5f5f5" fill-rule="nonzero" opacity="1" stroke="none" vectornator:layerName="path"/>
</g>
</g>
<g opacity="1" vectornator:layerName="path">
<clipPath clip-rule="nonzero" id="ClipPath_2">
<path d="M0 0L500 0L500 500L0 500L0 0Z"/>
</clipPath>
<g clip-path="url(#ClipPath_2)">
<path d="M184.123 286.741C208.904 301.048 208.903 324.244 184.123 338.551C159.342 352.858 119.165 352.858 94.3846 338.551C69.6046 324.244 69.6046 301.048 94.3846 286.741C119.166 272.434 159.343 272.434 184.123 286.741" fill="#e1e1e1" fill-rule="nonzero" opacity="1" stroke="none" vectornator:layerName="path"/>
<path d="M188.606 410.649L186.835 401.767L195.413 406.719L188.606 410.649ZM247.286 408.962L241.387 405.555L245.679 403.078C247.913 401.784 248.246 399.953 248.246 398.971C248.244 397.995 247.908 396.164 245.674 394.875L234.987 388.704C233.802 388.021 232.396 387.672 230.799 387.671C229.208 387.672 227.801 388.021 226.619 388.703L219.409 392.867L182.15 371.355C180.966 370.672 179.561 370.325 177.97 370.324C176.381 370.324 174.974 370.67 173.783 371.356L158.556 380.148C157.242 380.908 156.378 381.658 155.826 382.527C155.168 383.578 154.966 384.873 155.239 386.452L163.121 425.89C163.579 427.871 165.063 429.598 167.534 431.023L178.221 437.193C179.407 437.878 180.811 438.226 182.395 438.226L182.402 438.226C183.995 438.226 185.404 437.878 186.587 437.195L216.888 419.699L225.712 424.793C226.898 425.478 228.303 425.825 229.903 425.825C231.488 425.825 232.893 425.479 234.081 424.794L247.281 417.17C249.52 415.885 249.857 414.05 249.859 413.059C249.857 412.083 249.52 410.251 247.286 408.962" fill="#e1e1e1" fill-rule="nonzero" opacity="1" stroke="none" vectornator:layerName="path"/>
<path d="M288.496 368.474C288.224 368.89 287.45 369.767 285.342 370.983C283.599 371.99 281.879 372.684 280.229 373.046C278.914 373.335 277.601 373.481 276.327 373.481C275.98 373.481 275.633 373.471 275.285 373.449C273.674 373.351 272.081 373.039 270.551 372.521C268.919 371.969 267.285 371.26 265.654 370.39C259.727 367.35 254.116 364.111 248.929 360.73C247.53 359.858 246.395 358.972 245.557 358.101C244.94 357.459 244.553 356.842 244.437 356.328C244.416 356.228 244.35 355.925 244.781 355.267C245.053 354.854 245.824 353.978 247.934 352.759C249.682 351.75 251.402 351.056 253.046 350.696C254.311 350.419 255.566 350.278 256.775 350.278C257.155 350.278 257.532 350.292 257.903 350.32C259.504 350.438 261.095 350.761 262.628 351.28C264.29 351.842 265.986 352.547 267.6 353.34C273.35 356.356 278.98 359.607 284.348 363.01C285.768 363.9 286.941 364.796 287.827 365.668C288.422 366.256 288.784 366.819 288.873 367.297C288.894 367.413 288.96 367.767 288.496 368.474M306.624 347.585C303.954 345.889 301.001 344.105 297.847 342.284C294.718 340.477 291.563 338.735 288.448 337.093C284.457 335.033 280.06 333.334 275.381 332.041C270.66 330.74 265.678 330.049 260.575 329.987L259.885 329.983C255.014 329.983 249.964 330.609 244.876 331.844C239.517 333.148 234.135 335.348 228.878 338.382C223.434 341.525 219.611 344.665 217.188 347.984C214.655 351.461 213.433 354.983 213.556 358.453C213.68 361.92 215.043 365.245 217.602 368.331C219.927 371.145 222.966 373.773 226.656 376.159C229.417 377.906 232.437 379.729 235.635 381.576C238.832 383.422 241.92 385.126 244.829 386.648C248.83 388.714 253.228 390.413 257.896 391.7C262.617 393.003 267.6 393.694 272.704 393.755L273.395 393.758C278.278 393.758 283.328 393.133 288.402 391.897C293.761 390.594 299.143 388.395 304.399 385.359C309.847 382.214 313.67 379.074 316.089 375.76C318.626 372.284 319.849 368.759 319.723 365.287C319.599 361.826 318.236 358.503 315.676 355.409C313.346 352.593 310.307 349.964 306.624 347.585" fill="#e1e1e1" fill-rule="nonzero" opacity="1" stroke="none" vectornator:layerName="path"/>
<path d="M335.89 325.613L334.119 316.731L342.697 321.683L335.89 325.613ZM394.571 323.926L388.67 320.519L392.962 318.041C395.197 316.748 395.53 314.917 395.53 313.94C395.53 312.965 395.197 311.134 392.958 309.838L382.273 303.669C381.091 302.985 379.685 302.637 378.082 302.634C376.492 302.637 375.086 302.984 373.903 303.667L366.693 307.83L329.435 286.32C328.252 285.637 326.846 285.288 325.253 285.287C323.666 285.287 322.258 285.634 321.068 286.318L305.841 295.109C304.53 295.868 303.665 296.616 303.108 297.491C302.452 298.544 302.25 299.839 302.523 301.416L310.406 340.854C310.864 342.835 312.348 344.561 314.818 345.987L325.504 352.156C326.69 352.842 328.095 353.19 329.679 353.19L329.687 353.19C331.278 353.19 332.685 352.842 333.871 352.157L364.173 334.663L372.997 339.757C374.183 340.442 375.591 340.789 377.188 340.789C378.774 340.789 380.179 340.442 381.365 339.757L394.565 332.134C396.8 330.851 397.141 329.017 397.144 328.018C397.141 327.042 396.801 325.215 394.571 323.926" fill="#e1e1e1" fill-rule="nonzero" opacity="1" stroke="none" vectornator:layerName="path"/>
</g>
</g>
<g opacity="1" vectornator:layerName="path">
<clipPath clip-rule="nonzero" id="ClipPath_3">
<path d="M0 0L500 0L500 500L0 500L0 0Z"/>
</clipPath>
<g clip-path="url(#ClipPath_3)">
<path d="M435.371 85.7529L425.908 80.2899C425.956 79.9209 425.988 79.5399 425.988 79.1289L425.988 76.3879C425.988 71.5089 422.563 65.5769 418.338 63.1369C416.627 62.1499 415.054 61.8979 413.779 62.2569C413.087 55.3239 408.274 47.4819 402.429 44.1069C396.107 40.4569 390.983 43.4159 390.983 50.7139L390.983 54.8159C390.983 56.7059 391.334 58.7009 391.953 60.6849L384.093 56.1469C381.749 54.7939 379.85 55.8909 379.85 58.5969C379.85 61.3029 381.749 64.5939 384.093 65.9469L435.371 95.5529C437.715 96.9059 439.614 95.8089 439.614 93.1029C439.614 90.3969 437.715 87.1059 435.371 85.7529" fill="#ececec" fill-rule="nonzero" opacity="1" stroke="none" vectornator:layerName="path"/>
<path d="M377.997 95.8921L371.969 92.4121C371.998 92.1771 372.019 91.9341 372.019 91.6721L372.019 89.9261C372.019 86.8181 369.837 83.0381 367.145 81.4851C366.056 80.8551 365.053 80.6951 364.241 80.9241C363.801 76.5071 360.734 71.5111 357.01 69.3611C352.983 67.0361 349.719 68.9201 349.719 73.5701L349.719 76.1831C349.719 77.3871 349.941 78.6591 350.336 79.9221L345.329 77.0311C343.836 76.1691 342.626 76.8681 342.626 78.5921C342.626 80.3161 343.836 82.4121 345.329 83.2741L377.997 102.135C379.49 102.997 380.7 102.298 380.7 100.574C380.7 98.8501 379.49 96.7541 377.997 95.8921" fill="#ececec" fill-rule="nonzero" opacity="1" stroke="none" vectornator:layerName="path"/>
</g>
</g>
<g opacity="1" vectornator:layerName="path">
<clipPath clip-rule="nonzero" id="ClipPath_4">
<path d="M0 0L500 0L500 500L0 500L0 0Z"/>
</clipPath>
<g clip-path="url(#ClipPath_4)">
<path d="M373.82 300.749C370.586 285.938 365.406 271.423 368.625 248.766C371.542 228.232 382.326 209.876 397.699 207.822C408.064 206.437 417.113 217.993 406.967 232.834C405.284 235.297 383.316 256.793 386.937 286.503L384.888 306.237L373.82 300.749Z" fill="#00dfbf" fill-rule="nonzero" opacity="1" stroke="none" vectornator:layerName="path"/>
<g opacity="0.199997" vectornator:layerName="path">
<clipPath clip-rule="nonzero" id="ClipPath_5">
<path d="M367.609 306.237L411.402 306.237L411.402 207.709L367.609 207.709L367.609 306.237Z"/>
</clipPath>
<g clip-path="url(#ClipPath_5)">
<path d="M373.82 300.749C370.586 285.938 365.406 271.423 368.625 248.766C371.542 228.232 382.326 209.876 397.699 207.822C408.064 206.437 417.113 217.993 406.967 232.834C405.284 235.297 383.316 256.793 386.937 286.503L384.888 306.237L373.82 300.749Z" fill="#000000" fill-rule="nonzero" opacity="1" stroke="none" vectornator:layerName="path"/>
</g>
</g>
<path d="M379.196 298.549C379.463 298.427 379.627 298.138 379.579 297.836C373.623 259.844 381.229 231.469 399.58 215.874C399.861 215.635 399.895 215.212 399.656 214.93C399.419 214.65 399 214.605 398.712 214.854C380.128 230.647 372.224 259.575 378.256 298.044C378.312 298.409 378.655 298.658 379.02 298.601C379.083 298.592 379.142 298.574 379.196 298.549" fill="#ffffff" fill-rule="nonzero" opacity="1" stroke="none" vectornator:layerName="path"/>
<path d="M391.143 312.058C391.068 306.297 394.246 293.745 401.78 282.789C411.284 268.972 426.096 264.449 427.611 257.206C429.43 248.506 420.325 243.543 408.526 247.763C394.345 252.836 377.588 273.265 383.398 307.705L391.143 312.058Z" fill="#365a64" fill-rule="nonzero" opacity="1" stroke="none" vectornator:layerName="path"/>
<path d="M387.266 305.974C387.522 305.874 387.707 305.633 387.723 305.34C389.322 274.772 407.475 258.764 416.85 254.571C417.212 254.409 417.375 253.982 417.213 253.619C417.051 253.255 416.64 253.088 416.262 253.256C405.895 257.892 387.916 274.063 386.285 305.266C386.264 305.662 386.571 306.001 386.966 306.022C387.073 306.028 387.173 306.01 387.266 305.974" fill="#ffffff" fill-rule="nonzero" opacity="1" stroke="none" vectornator:layerName="path"/>
</g>
</g>
<g opacity="1" vectornator:layerName="path">
<clipPath clip-rule="nonzero" id="ClipPath_6">
<path d="M0 0L500 0L500 500L0 500L0 0Z"/>
</clipPath>
<g clip-path="url(#ClipPath_6)">
<path d="M244.655 401.337L231.445 408.959C230.708 409.392 229.797 409.602 228.721 409.602C227.645 409.602 226.745 409.392 226.009 408.959L215.721 403.02L183.958 421.362C183.221 421.783 182.31 422.005 181.234 422.005C180.158 422.005 179.259 421.783 178.51 421.362L167.825 415.19C166.072 414.185 165.066 413.097 164.797 411.928L156.929 372.578C156.883 372.321 156.871 372.087 156.871 371.877C156.871 372.637 156.859 382.457 156.871 382.936C156.871 383.123 156.894 383.322 156.929 383.544L164.797 422.894C165.066 424.063 166.072 425.15 167.825 426.156L178.51 432.328C179.259 432.749 180.158 432.971 181.234 432.971C182.31 432.971 183.221 432.749 183.958 432.328L215.721 413.986L226.009 419.925C226.745 420.358 227.645 420.567 228.721 420.567C229.797 420.567 230.708 420.358 231.445 419.925L244.655 412.302C245.392 411.87 245.766 411.356 245.766 410.724L245.766 399.758C245.766 400.378 245.392 400.904 244.655 401.337" fill="#00dfbf" fill-rule="nonzero" opacity="1" stroke="none" vectornator:layerName="path"/>
<path d="M244.153 396.637L244.153 385.671C244.153 386.291 243.778 386.817 243.042 387.249L234.368 392.253L243.732 397.654C244.001 397.35 244.153 397.011 244.153 396.637" fill="#00dfbf" fill-rule="nonzero" opacity="1" stroke="none" vectornator:layerName="path"/>
<path d="M184.017 395.094L190.587 398.905L200.092 393.422L181.538 382.702L184.005 395.094L184.017 395.094Z" fill="#00dfbf" fill-rule="nonzero" opacity="1" stroke="none" vectornator:layerName="path"/>
<g opacity="0.350006" vectornator:layerName="path">
<clipPath clip-rule="nonzero" id="ClipPath_7">
<path d="M181.538 398.905L200.091 398.905L200.091 382.702L181.538 382.702L181.538 398.905Z"/>
</clipPath>
<g clip-path="url(#ClipPath_7)">
<path d="M184.017 395.094L190.587 398.905L200.092 393.422L181.538 382.702L184.005 395.094L184.017 395.094Z" fill="#000000" fill-rule="nonzero" opacity="1" stroke="none" vectornator:layerName="path"/>
</g>
</g>
<g opacity="0.199997" vectornator:layerName="path">
<clipPath clip-rule="nonzero" id="ClipPath_8">
<path d="M234.368 397.654L244.153 397.654L244.153 385.671L234.368 385.671L234.368 397.654Z"/>
</clipPath>
<g clip-path="url(#ClipPath_8)">
<path d="M244.153 396.637L244.153 385.671C244.153 386.291 243.778 386.817 243.042 387.249L234.368 392.253L243.732 397.654C244.001 397.35 244.153 397.011 244.153 396.637" fill="#000000" fill-rule="nonzero" opacity="1" stroke="none" vectornator:layerName="path"/>
</g>
</g>
<g opacity="0.199997" vectornator:layerName="path">
<clipPath clip-rule="nonzero" id="ClipPath_9">
<path d="M228.721 420.568L245.766 420.568L245.766 399.758L228.721 399.758L228.721 420.568Z"/>
</clipPath>
<g clip-path="url(#ClipPath_9)">
<path d="M244.655 401.337L231.445 408.959C230.708 409.392 229.797 409.602 228.721 409.602L228.721 420.567C229.797 420.567 230.708 420.358 231.445 419.925L244.655 412.302C245.392 411.87 245.766 411.356 245.766 410.724L245.766 399.758C245.766 400.378 245.392 400.904 244.655 401.337" fill="#000000" fill-rule="nonzero" opacity="1" stroke="none" vectornator:layerName="path"/>
</g>
</g>
<g opacity="0.25" vectornator:layerName="path">
<clipPath clip-rule="nonzero" id="ClipPath_10">
<path d="M156.866 423.56L165.043 423.56L165.043 371.877L156.866 371.877L156.866 423.56Z"/>
</clipPath>
<g clip-path="url(#ClipPath_10)">
<path d="M164.797 411.928L156.929 372.578C156.882 372.321 156.871 372.087 156.871 371.876C156.871 372.636 156.859 382.456 156.871 382.936C156.871 383.123 156.894 383.322 156.929 383.544L164.797 422.894C164.844 423.116 164.926 423.338 165.043 423.56L165.043 412.595C164.926 412.372 164.844 412.15 164.797 411.928" fill="#000000" fill-rule="nonzero" opacity="1" stroke="none" vectornator:layerName="path"/>
</g>
</g>
<g opacity="0.350006" vectornator:layerName="path">
<clipPath clip-rule="nonzero" id="ClipPath_11">
<path d="M165.043 432.971L181.538 432.971L181.538 412.595L165.043 412.595L165.043 432.971Z"/>
</clipPath>
<g clip-path="url(#ClipPath_11)">
<path d="M181.234 422.005C180.158 422.005 179.258 421.783 178.51 421.362L167.825 415.19C166.41 414.383 165.475 413.518 165.043 412.594L165.043 423.56C165.475 424.484 166.41 425.349 167.825 426.155L178.51 432.328C179.258 432.749 180.158 432.971 181.234 432.971C181.339 432.971 181.433 432.971 181.538 432.947L181.538 421.982C181.433 422.005 181.339 422.005 181.234 422.005" fill="#000000" fill-rule="nonzero" opacity="1" stroke="none" vectornator:layerName="path"/>
</g>
</g>
<g opacity="0.199997" vectornator:layerName="path">
<clipPath clip-rule="nonzero" id="ClipPath_12">
<path d="M181.538 432.948L215.721 432.948L215.721 403.02L181.538 403.02L181.538 432.948Z"/>
</clipPath>
<g clip-path="url(#ClipPath_12)">
<path d="M183.958 421.362C183.291 421.748 182.485 421.959 181.538 421.982L181.538 432.947C182.485 432.924 183.291 432.714 183.958 432.328L215.721 413.986L215.721 403.02L183.958 421.362Z" fill="#000000" fill-rule="nonzero" opacity="1" stroke="none" vectornator:layerName="path"/>
</g>
</g>
<g opacity="0.350006" vectornator:layerName="path">
<clipPath clip-rule="nonzero" id="ClipPath_13">
<path d="M215.721 420.568L228.721 420.568L228.721 403.02L215.721 403.02L215.721 420.568Z"/>
</clipPath>
<g clip-path="url(#ClipPath_13)">
<path d="M226.009 408.959L215.721 403.02L215.721 413.986L226.009 419.925C226.746 420.357 227.646 420.567 228.721 420.567L228.721 409.602C227.646 409.602 226.746 409.392 226.009 408.959" fill="#000000" fill-rule="nonzero" opacity="1" stroke="none" vectornator:layerName="path"/>
</g>
</g>
<path d="M200.089 393.417L181.538 382.707L185.368 401.917L200.089 393.417ZM231.45 408.96C230.709 409.387 229.801 409.601 228.726 409.6C227.651 409.601 226.745 409.387 226.005 408.959L215.72 403.021L183.957 421.36C183.217 421.788 182.313 422 181.234 422C180.157 422.001 179.253 421.787 178.513 421.36L167.826 415.189C166.077 414.18 165.069 413.094 164.8 411.929L156.936 372.576C156.802 371.8 156.87 371.198 157.136 370.771C157.407 370.345 157.978 369.879 158.851 369.374L174.076 360.584C174.815 360.158 175.723 359.944 176.8 359.943C177.876 359.945 178.783 360.158 179.521 360.584L218.24 382.938L226.911 377.932C227.649 377.505 228.559 377.292 229.634 377.291C230.711 377.292 231.617 377.505 232.357 377.932L243.044 384.103C243.784 384.53 244.154 385.054 244.154 385.674C244.154 386.296 243.782 386.82 243.045 387.246L234.373 392.253L244.656 398.19C245.398 398.618 245.766 399.141 245.768 399.762C245.767 400.384 245.396 400.908 244.657 401.334L231.45 408.96Z" fill="#00dfbf" fill-rule="nonzero" opacity="1" stroke="none" vectornator:layerName="path"/>
<path d="M315.64 352.646C315.594 355.288 314.553 357.989 312.554 360.736C310.403 363.682 306.814 366.616 301.764 369.527C296.725 372.438 291.652 374.507 286.543 375.758C281.434 376.998 276.443 377.594 271.568 377.535C266.704 377.477 262.004 376.822 257.503 375.583C253.003 374.344 248.829 372.73 244.995 370.743C242.107 369.235 239.091 367.563 235.923 365.74C232.766 363.916 229.809 362.139 227.05 360.385C223.624 358.176 220.83 355.768 218.691 353.172C216.528 350.565 215.406 347.865 215.312 345.047C215.371 346.789 215.243 354.096 215.312 356.013C215.406 358.831 216.528 361.531 218.691 364.138C220.83 366.733 223.624 369.142 227.05 371.351C229.809 373.104 232.766 374.881 235.923 376.705C239.091 378.529 242.107 380.201 244.995 381.721C248.829 383.696 253.003 385.31 257.503 386.549C262.004 387.788 266.704 388.442 271.568 388.501C276.443 388.56 281.434 387.963 286.543 386.724C291.652 385.473 296.725 383.404 301.764 380.493C306.814 377.582 310.403 374.648 312.554 371.702C314.705 368.756 315.734 365.868 315.628 363.063C315.571 361.449 315.675 355.136 315.64 352.646" fill="#00dfbf" fill-rule="nonzero" opacity="1" stroke="none" vectornator:layerName="path"/>
<g opacity="0.350006" vectornator:layerName="path">
<clipPath clip-rule="nonzero" id="ClipPath_14">
<path d="M215.291 388.502L274.258 388.502L274.258 345.047L215.291 345.047L215.291 388.502Z"/>
</clipPath>
<g clip-path="url(#ClipPath_14)">
<path d="M274.258 377.477C273.359 377.51 272.459 377.545 271.568 377.535C266.704 377.477 262.004 376.822 257.503 375.582C253.003 374.343 248.829 372.73 244.995 370.743C242.107 369.234 239.091 367.563 235.923 365.739C232.766 363.915 229.809 362.138 227.05 360.385C223.624 358.175 220.83 355.767 218.691 353.172C216.528 350.565 215.406 347.864 215.312 345.047C215.371 346.789 215.242 354.095 215.312 356.013C215.406 358.83 216.528 361.53 218.691 364.138C220.83 366.733 223.624 369.141 227.05 371.351C229.809 373.104 232.766 374.881 235.923 376.705C239.091 378.529 242.107 380.2 244.995 381.72C248.829 383.696 253.003 385.309 257.503 386.548C262.004 387.788 266.704 388.442 271.568 388.5C272.459 388.511 273.359 388.476 274.258 388.443L274.258 377.477Z" fill="#000000" fill-rule="nonzero" opacity="1" stroke="none" vectornator:layerName="path"/>
</g>
</g>
<g opacity="0.199997" vectornator:layerName="path">
<clipPath clip-rule="nonzero" id="ClipPath_15">
<path d="M274.259 388.443L315.647 388.443L315.647 352.646L274.259 352.646L274.259 388.443Z"/>
</clipPath>
<g clip-path="url(#ClipPath_15)">
<path d="M315.64 352.646C315.594 355.288 314.553 357.989 312.554 360.736C310.403 363.682 306.814 366.616 301.764 369.527C296.725 372.438 291.652 374.507 286.543 375.758C282.369 376.771 278.278 377.33 274.26 377.478L274.26 388.443C278.278 388.296 282.369 387.736 286.543 386.724C291.652 385.473 296.725 383.404 301.764 380.493C306.814 377.582 310.403 374.648 312.554 371.702C314.705 368.756 315.734 365.868 315.628 363.063C315.571 361.449 315.675 355.136 315.64 352.646" fill="#000000" fill-rule="nonzero" opacity="1" stroke="none" vectornator:layerName="path"/>
</g>
</g>
<path d="M242.282 346.824C242.843 347.408 243.498 347.993 244.246 348.554C244.585 348.332 244.924 348.11 245.298 347.888C247.321 346.731 249.296 345.936 251.249 345.503C253.201 345.082 255.106 344.93 256.954 345.071C258.801 345.211 260.613 345.574 262.401 346.17C264.178 346.778 265.978 347.526 267.791 348.414C273.636 351.489 279.283 354.739 284.73 358.199C285.443 358.643 286.097 359.099 286.693 359.543C288.132 358.614 289.173 357.693 289.769 356.773C290.506 355.651 290.774 354.54 290.576 353.453C290.377 352.377 289.758 351.313 288.717 350.284C287.665 349.256 286.344 348.239 284.73 347.233C279.283 343.773 273.636 340.512 267.791 337.449C265.978 336.56 264.178 335.812 262.401 335.204C260.613 334.608 258.801 334.245 256.954 334.105C255.106 333.965 253.201 334.116 251.249 334.537C249.296 334.97 247.321 335.765 245.298 336.922C243.287 338.091 241.908 339.237 241.171 340.359C240.435 341.482 240.178 342.58 240.411 343.644C240.657 344.72 241.277 345.772 242.282 346.824" fill="#00dfbf" fill-rule="nonzero" opacity="1" stroke="none" vectornator:layerName="path"/>
<g opacity="0.350006" vectornator:layerName="path">
<clipPath clip-rule="nonzero" id="ClipPath_16">
<path d="M240.328 359.542L290.639 359.542L290.639 334.054L240.328 334.054L240.328 359.542Z"/>
</clipPath>
<g clip-path="url(#ClipPath_16)">
<path d="M242.282 346.824C242.843 347.408 243.498 347.993 244.246 348.554C244.585 348.332 244.924 348.11 245.298 347.888C247.321 346.731 249.296 345.936 251.249 345.503C253.201 345.082 255.106 344.93 256.954 345.071C258.801 345.211 260.613 345.574 262.401 346.17C264.178 346.778 265.978 347.526 267.791 348.414C273.636 351.489 279.283 354.739 284.73 358.199C285.443 358.643 286.097 359.099 286.693 359.543C288.132 358.614 289.173 357.693 289.769 356.773C290.506 355.651 290.774 354.54 290.576 353.453C290.377 352.377 289.758 351.313 288.717 350.284C287.665 349.256 286.344 348.239 284.73 347.233C279.283 343.773 273.636 340.512 267.791 337.449C265.978 336.56 264.178 335.812 262.401 335.204C260.613 334.608 258.801 334.245 256.954 334.105C255.106 333.965 253.201 334.116 251.249 334.537C249.296 334.97 247.321 335.765 245.298 336.922C243.287 338.091 241.908 339.237 241.171 340.359C240.435 341.482 240.178 342.58 240.411 343.644C240.657 344.72 241.277 345.772 242.282 346.824" fill="#000000" fill-rule="nonzero" opacity="1" stroke="none" vectornator:layerName="path"/>
</g>
</g>
<path d="M284.729 347.229C279.283 343.776 273.636 340.516 267.789 337.449C265.975 336.557 264.175 335.81 262.396 335.207C260.614 334.606 258.798 334.239 256.95 334.101C255.102 333.966 253.2 334.111 251.251 334.538C249.302 334.965 247.321 335.761 245.303 336.924C243.289 338.089 241.909 339.233 241.17 340.359C240.431 341.485 240.179 342.582 240.413 343.648C240.651 344.716 241.271 345.773 242.278 346.821C243.287 347.87 244.598 348.899 246.211 349.907C251.454 353.323 257.101 356.583 263.151 359.687C264.898 360.619 266.663 361.384 268.445 361.986C270.222 362.588 272.056 362.948 273.939 363.062C275.823 363.179 277.739 363.025 279.687 362.597C281.636 362.17 283.621 361.375 285.635 360.21C287.653 359.046 289.03 357.901 289.768 356.775C290.507 355.651 290.779 354.544 290.576 353.458C290.375 352.372 289.752 351.313 288.711 350.285C287.667 349.258 286.34 348.238 284.729 347.229M229.17 327.61C234.211 324.699 239.289 322.623 244.397 321.38C249.506 320.141 254.499 319.548 259.37 319.605C264.242 319.666 268.932 320.314 273.435 321.556C277.939 322.799 282.106 324.409 285.939 326.387C288.962 327.98 292.055 329.687 295.215 331.511C298.375 333.335 301.263 335.083 303.887 336.75C307.314 338.962 310.104 341.369 312.254 343.969C314.407 346.569 315.532 349.278 315.633 352.089C315.735 354.903 314.709 357.786 312.559 360.733C310.406 363.683 306.809 366.614 301.768 369.524C296.727 372.436 291.651 374.511 286.542 375.754C281.436 376.996 276.444 377.587 271.57 377.529C266.698 377.471 262.005 376.822 257.505 375.578C253 374.337 248.832 372.726 245 370.748C242.109 369.234 239.086 367.565 235.927 365.741C232.768 363.917 229.809 362.132 227.051 360.385C223.625 358.172 220.834 355.767 218.686 353.166C216.531 350.567 215.408 347.859 215.307 345.045C215.208 342.233 216.232 339.351 218.381 336.401C220.534 333.452 224.129 330.521 229.17 327.61" fill="#00dfbf" fill-rule="nonzero" opacity="1" stroke="none" vectornator:layerName="path"/>
<path d="M391.94 316.301L378.729 323.923C377.993 324.356 377.081 324.566 376.005 324.566C374.93 324.566 374.03 324.356 373.294 323.923L363.005 317.984L331.243 336.327C330.506 336.748 329.594 336.97 328.518 336.97C327.443 336.97 326.543 336.748 325.794 336.327L315.11 330.154C313.356 329.149 312.351 328.062 312.082 326.892L304.214 287.542C304.168 287.285 304.156 287.051 304.156 286.841C304.156 287.601 304.144 297.421 304.156 297.9C304.156 298.087 304.179 298.286 304.214 298.508L312.082 337.858C312.351 339.027 313.356 340.114 315.11 341.12L325.794 347.292C326.543 347.713 327.443 347.935 328.518 347.935C329.594 347.935 330.506 347.713 331.243 347.292L363.005 328.95L373.294 334.889C374.03 335.322 374.93 335.532 376.005 335.532C377.081 335.532 377.993 335.322 378.729 334.889L391.94 327.266C392.676 326.834 393.05 326.32 393.05 325.688L393.05 314.723C393.05 315.342 392.676 315.868 391.94 316.301" fill="#00dfbf" fill-rule="nonzero" opacity="1" stroke="none" vectornator:layerName="path"/>
<path d="M391.436 311.601L391.436 300.635C391.436 301.255 391.062 301.781 390.326 302.213L381.651 307.217L391.015 312.618C391.284 312.314 391.436 311.975 391.436 311.601" fill="#00dfbf" fill-rule="nonzero" opacity="1" stroke="none" vectornator:layerName="path"/>
<path d="M331.301 310.058L337.87 313.869L347.375 308.386L328.822 297.666L331.289 310.058L331.301 310.058Z" fill="#00dfbf" fill-rule="nonzero" opacity="1" stroke="none" vectornator:layerName="path"/>
<g opacity="0.350006" vectornator:layerName="path">
<clipPath clip-rule="nonzero" id="ClipPath_17">
<path d="M328.822 313.869L347.375 313.869L347.375 297.666L328.822 297.666L328.822 313.869Z"/>
</clipPath>
<g clip-path="url(#ClipPath_17)">
<path d="M331.301 310.058L337.87 313.869L347.375 308.386L328.822 297.666L331.289 310.058L331.301 310.058Z" fill="#000000" fill-rule="nonzero" opacity="1" stroke="none" vectornator:layerName="path"/>
</g>
</g>
<g opacity="0.199997" vectornator:layerName="path">
<clipPath clip-rule="nonzero" id="ClipPath_18">
<path d="M381.651 312.618L391.436 312.618L391.436 300.635L381.651 300.635L381.651 312.618Z"/>
</clipPath>
<g clip-path="url(#ClipPath_18)">
<path d="M391.436 311.601L391.436 300.635C391.436 301.255 391.062 301.781 390.326 302.213L381.651 307.217L391.015 312.618C391.284 312.314 391.436 311.975 391.436 311.601" fill="#000000" fill-rule="nonzero" opacity="1" stroke="none" vectornator:layerName="path"/>
</g>
</g>
<g opacity="0.199997" vectornator:layerName="path">
<clipPath clip-rule="nonzero" id="ClipPath_19">
<path d="M376.005 335.531L393.05 335.531L393.05 314.723L376.005 314.723L376.005 335.531Z"/>
</clipPath>
<g clip-path="url(#ClipPath_19)">
<path d="M391.94 316.301L378.729 323.923C377.993 324.356 377.081 324.566 376.005 324.566L376.005 335.532C377.081 335.532 377.993 335.322 378.729 334.889L391.94 327.266C392.676 326.834 393.05 326.32 393.05 325.688L393.05 314.723C393.05 315.342 392.676 315.868 391.94 316.301" fill="#000000" fill-rule="nonzero" opacity="1" stroke="none" vectornator:layerName="path"/>
</g>
</g>
<g opacity="0.25" vectornator:layerName="path">
<clipPath clip-rule="nonzero" id="ClipPath_20">
<path d="M304.15 338.524L312.327 338.524L312.327 286.841L304.15 286.841L304.15 338.524Z"/>
</clipPath>
<g clip-path="url(#ClipPath_20)">
<path d="M312.081 326.892L304.214 287.542C304.167 287.285 304.155 287.051 304.155 286.841C304.155 287.6 304.144 297.42 304.155 297.9C304.155 298.087 304.179 298.286 304.214 298.508L312.081 337.858C312.128 338.08 312.21 338.302 312.327 338.524L312.327 327.559C312.21 327.336 312.128 327.114 312.081 326.892" fill="#000000" fill-rule="nonzero" opacity="1" stroke="none" vectornator:layerName="path"/>
</g>
</g>
<g opacity="0.350006" vectornator:layerName="path">
<clipPath clip-rule="nonzero" id="ClipPath_21">
<path d="M312.327 347.935L328.822 347.935L328.822 327.559L312.327 327.559L312.327 347.935Z"/>
</clipPath>
<g clip-path="url(#ClipPath_21)">
<path d="M328.518 336.97C327.443 336.97 326.542 336.748 325.794 336.327L315.11 330.154C313.695 329.347 312.759 328.483 312.328 327.559L312.328 338.525C312.759 339.448 313.695 340.313 315.11 341.12L325.794 347.292C326.542 347.713 327.443 347.935 328.518 347.935C328.623 347.935 328.717 347.935 328.823 347.912L328.823 336.947C328.717 336.97 328.623 336.97 328.518 336.97" fill="#000000" fill-rule="nonzero" opacity="1" stroke="none" vectornator:layerName="path"/>
</g>
</g>
<g opacity="0.199997" vectornator:layerName="path">
<clipPath clip-rule="nonzero" id="ClipPath_22">
<path d="M328.822 347.912L363.005 347.912L363.005 317.984L328.822 317.984L328.822 347.912Z"/>
</clipPath>
<g clip-path="url(#ClipPath_22)">
<path d="M331.242 336.327C330.575 336.713 329.768 336.923 328.822 336.947L328.822 347.912C329.768 347.889 330.575 347.679 331.242 347.292L363.005 328.95L363.005 317.984L331.242 336.327Z" fill="#000000" fill-rule="nonzero" opacity="1" stroke="none" vectornator:layerName="path"/>
</g>
</g>
<g opacity="0.350006" vectornator:layerName="path">
<clipPath clip-rule="nonzero" id="ClipPath_23">
<path d="M363.005 335.531L376.005 335.531L376.005 317.984L363.005 317.984L363.005 335.531Z"/>
</clipPath>
<g clip-path="url(#ClipPath_23)">
<path d="M373.293 323.923L363.005 317.984L363.005 328.95L373.293 334.889C374.029 335.321 374.93 335.532 376.005 335.532L376.005 324.566C374.93 324.566 374.029 324.356 373.293 323.923" fill="#000000" fill-rule="nonzero" opacity="1" stroke="none" vectornator:layerName="path"/>
</g>
</g>
<path d="M347.372 308.38L328.821 297.67L332.652 316.88L347.372 308.38ZM378.733 323.923C377.992 324.351 377.084 324.565 376.009 324.563C374.934 324.564 374.028 324.35 373.288 323.922L363.003 317.984L331.24 336.324C330.501 336.751 329.597 336.963 328.518 336.963C327.44 336.964 326.536 336.75 325.797 336.323L315.109 330.152C313.361 329.143 312.352 328.057 312.084 326.892L304.219 287.539C304.086 286.763 304.153 286.161 304.419 285.735C304.69 285.308 305.262 284.842 306.135 284.337L321.359 275.547C322.099 275.121 323.007 274.907 324.084 274.906C325.159 274.908 326.066 275.121 326.805 275.547L365.523 297.901L374.194 292.895C374.933 292.468 375.843 292.255 376.918 292.254C377.994 292.256 378.9 292.468 379.64 292.896L390.327 299.066C391.067 299.493 391.437 300.017 391.437 300.637C391.437 301.259 391.065 301.783 390.328 302.21L381.656 307.216L391.939 313.153C392.682 313.581 393.05 314.105 393.052 314.725C393.05 315.347 392.68 315.871 391.94 316.297L378.733 323.923Z" fill="#00dfbf" fill-rule="nonzero" opacity="1" stroke="none" vectornator:layerName="path"/>
<path d="M310.379 409.165C310.604 409.034 310.881 408.97 311.209 408.97C311.536 408.97 311.813 409.035 312.037 409.165L315.295 411.046C315.521 411.176 315.634 411.336 315.633 411.524C315.633 411.714 315.521 411.874 315.295 412.004L300.729 420.414C300.503 420.544 300.227 420.609 299.899 420.608C299.571 420.609 299.294 420.544 299.068 420.414L279.216 408.952C278.991 408.822 278.878 408.663 278.877 408.473C278.878 408.284 278.99 408.124 279.216 407.994L293.537 399.726C293.762 399.596 294.039 399.53 294.366 399.53C294.695 399.53 294.973 399.596 295.197 399.726L298.455 401.606C298.68 401.736 298.791 401.895 298.792 402.085C298.791 402.274 298.68 402.435 298.454 402.564L288.988 408.029L292.308 409.945L301.098 404.871C301.322 404.741 301.599 404.676 301.928 404.676C302.255 404.676 302.531 404.741 302.756 404.871L306.014 406.752C306.239 406.882 306.353 407.042 306.352 407.23C306.353 407.421 306.239 407.58 306.014 407.71L297.225 412.784L300.667 414.771L310.379 409.165Z" fill="#365a64" fill-rule="nonzero" opacity="1" stroke="none" vectornator:layerName="path"/>
<path d="M315.233 393.585C315.458 393.455 315.736 393.391 316.063 393.391C316.39 393.391 316.668 393.455 316.894 393.586L319.998 395.378C320.222 395.508 320.334 395.667 320.335 395.856C320.334 396.046 320.222 396.206 319.998 396.336L317.201 397.95C315.316 399.039 315.315 400.127 317.201 401.215L324.76 405.58C324.986 405.71 325.099 405.87 325.098 406.059C325.098 406.248 324.986 406.408 324.76 406.538L320.888 408.773C320.663 408.904 320.386 408.969 320.058 408.969C319.731 408.969 319.454 408.904 319.228 408.773L304.908 400.506C304.681 400.375 304.569 400.216 304.569 400.026C304.57 399.837 304.681 399.678 304.907 399.547L308.472 397.488C308.697 397.358 308.974 397.294 309.301 397.294C309.629 397.294 309.906 397.358 310.132 397.489L310.838 397.897C310.859 397.365 311.058 396.824 311.437 396.273C311.816 395.724 312.466 395.182 313.388 394.649L315.233 393.585Z" fill="#365a64" fill-rule="nonzero" opacity="1" stroke="none" vectornator:layerName="path"/>
<path d="M330.107 384.999C330.332 384.868 330.61 384.804 330.937 384.804C331.265 384.804 331.542 384.868 331.768 384.999L334.872 386.791C335.097 386.921 335.209 387.081 335.209 387.27C335.209 387.459 335.097 387.619 334.872 387.749L332.075 389.363C330.19 390.452 330.189 391.54 332.075 392.628L339.634 396.993C339.86 397.123 339.973 397.283 339.972 397.472C339.972 397.661 339.86 397.821 339.634 397.951L335.762 400.187C335.537 400.317 335.26 400.382 334.932 400.382C334.605 400.383 334.328 400.317 334.103 400.187L319.783 391.919C319.556 391.788 319.443 391.629 319.443 391.439C319.444 391.251 319.555 391.091 319.781 390.96L323.346 388.902C323.571 388.772 323.849 388.708 324.175 388.707C324.503 388.707 324.78 388.772 325.006 388.902L325.712 389.311C325.734 388.778 325.933 388.237 326.312 387.687C326.691 387.137 327.341 386.596 328.263 386.063L330.107 384.999Z" fill="#365a64" fill-rule="nonzero" opacity="1" stroke="none" vectornator:layerName="path"/>
<path d="M347.565 385.353C348.405 385.767 349.295 385.957 350.238 385.92C351.18 385.885 352.062 385.631 352.881 385.158C353.701 384.685 354.141 384.176 354.203 383.632C354.264 383.088 353.936 382.574 353.219 382.088C352.953 381.887 352.626 381.674 352.235 381.45C351.846 381.225 351.477 381.036 351.129 380.881C350.289 380.467 349.399 380.279 348.457 380.314C347.512 380.35 346.631 380.604 345.812 381.077C344.993 381.55 344.552 382.059 344.492 382.603C344.43 383.147 344.757 383.662 345.475 384.147C345.741 384.348 346.069 384.561 346.458 384.786C346.848 385.01 347.215 385.2 347.565 385.353M356.538 377.617C356.866 377.783 357.27 378.004 357.752 378.282C358.234 378.561 358.617 378.794 358.905 378.983C359.846 379.575 360.544 380.237 360.995 380.97C361.444 381.704 361.635 382.464 361.564 383.25C361.491 384.038 361.132 384.83 360.487 385.627C359.841 386.426 358.893 387.186 357.644 387.908C356.394 388.629 355.078 389.176 353.696 389.549C352.312 389.921 350.94 390.129 349.579 390.17C348.215 390.212 346.898 390.102 345.628 389.842C344.358 389.582 343.211 389.179 342.186 388.635C341.858 388.47 341.455 388.249 340.972 387.97C340.491 387.692 340.107 387.458 339.819 387.269C338.857 386.69 338.149 386.033 337.7 385.299C337.249 384.567 337.064 383.803 337.146 383.011C337.228 382.218 337.587 381.42 338.222 380.616C338.857 379.811 339.799 379.048 341.049 378.327C342.299 377.605 343.621 377.061 345.014 376.694C346.408 376.328 347.79 376.121 349.163 376.073C350.535 376.026 351.852 376.135 353.112 376.402C354.371 376.667 355.514 377.073 356.538 377.617" fill="#365a64" fill-rule="nonzero" opacity="1" stroke="none" vectornator:layerName="path"/>
<path d="M364.527 365.125C364.753 364.995 365.03 364.931 365.357 364.93C365.685 364.931 365.962 364.995 366.188 365.126L369.292 366.918C369.517 367.048 369.629 367.207 369.629 367.396C369.629 367.586 369.517 367.746 369.292 367.876L366.495 369.49C364.61 370.579 364.609 371.667 366.495 372.755L374.054 377.12C374.28 377.25 374.393 377.41 374.392 377.599C374.392 377.788 374.28 377.948 374.054 378.078L370.182 380.313C369.957 380.443 369.68 380.509 369.352 380.509C369.025 380.509 368.748 380.444 368.523 380.313L354.203 372.046C353.976 371.915 353.863 371.756 353.863 371.566C353.864 371.377 353.975 371.217 354.201 371.087L357.766 369.028C357.992 368.898 358.269 368.834 358.595 368.834C358.923 368.834 359.201 368.898 359.427 369.029L360.132 369.437C360.154 368.905 360.353 368.364 360.732 367.813C361.111 367.264 361.761 366.723 362.683 366.189L364.527 365.125Z" fill="#365a64" fill-rule="nonzero" opacity="1" stroke="none" vectornator:layerName="path"/>
</g>
</g>
<g opacity="1" vectornator:layerName="path">
<clipPath clip-rule="nonzero" id="ClipPath_24">
<path d="M0 0L500 0L500 500L0 500L0 0Z"/>
</clipPath>
<g clip-path="url(#ClipPath_24)">
<path d="M152.588 274.36C148.372 274.192 146.505 274.609 147.161 279.072C147.817 283.534 148.009 286.967 148.009 286.967C148.009 286.967 155.522 287.185 159.005 285.239C162.488 283.294 158.929 274.614 152.588 274.36" fill="#00dfbf" fill-rule="nonzero" opacity="1" stroke="none" vectornator:layerName="path"/>
<g opacity="0.5" vectornator:layerName="path">
<clipPath clip-rule="nonzero" id="ClipPath_25">
<path d="M147.033 286.975L160.37 286.975L160.37 274.33L147.033 274.33L147.033 286.975Z"/>
</clipPath>
<g clip-path="url(#ClipPath_25)">
<path d="M152.588 274.36C148.372 274.192 146.505 274.609 147.161 279.072C147.817 283.534 148.009 286.967 148.009 286.967C148.009 286.967 155.522 287.185 159.005 285.239C162.488 283.294 158.929 274.614 152.588 274.36" fill="#000000" fill-rule="nonzero" opacity="1" stroke="none" vectornator:layerName="path"/>
</g>
</g>
<path d="M153.264 293.518C152.992 293.518 152.714 293.491 152.437 293.436C150.135 292.982 148.637 290.748 149.092 288.446C150.184 282.908 151.263 278.631 152.215 274.857C153.603 269.355 154.7 265.008 155.368 258.875C156.413 249.274 153.377 240.109 150.186 234.732C148.989 232.714 149.654 230.108 151.671 228.911C153.685 227.713 156.295 228.378 157.492 230.396C159.38 233.577 165.416 245.098 163.815 259.795C163.082 266.515 161.865 271.344 160.454 276.935C159.528 280.608 158.477 284.771 157.427 290.091C157.028 292.116 155.252 293.518 153.264 293.518" fill="#365a64" fill-rule="nonzero" opacity="1" stroke="none" vectornator:layerName="path"/>
<path d="M143.104 299.261C143.104 299.261 142.697 301.042 143.075 301.749C143.666 302.85 146.93 304.199 148.65 304.909C150.37 305.619 152.266 306.665 154.068 309.943C155.995 313.446 159.493 315.825 163.403 317.311C167.314 318.797 173.01 319.571 179.698 317.899C186.386 316.228 186.667 312.201 186.667 312.201C186.667 312.201 186.772 308.423 185.047 307.943C183.322 307.463 143.104 299.261 143.104 299.261" fill="#365a64" fill-rule="nonzero" opacity="1" stroke="none" vectornator:layerName="path"/>
<path d="M145.801 285.22C145.611 286.409 145.341 287.585 144.99 288.738C144.027 291.91 142.438 295.176 143.103 299.261C144.202 301.22 146.495 301.958 148.218 302.722C150.533 303.749 152.192 304.429 153.849 306.43C156.822 310.022 159.656 314.563 168.641 315.729C177.625 316.895 184.164 313.627 185.633 310.994C187.103 308.362 185.447 306.083 179.559 303.397C176.57 302.033 169.751 296.424 168.967 295.682C168.206 294.962 167.641 294.124 167.051 293.27C165.857 291.543 164.943 289.348 164.651 287.283C164.379 285.353 164.479 282.851 164.976 280.447C165.083 279.932 165.339 279.395 165.12 278.916C164.545 277.661 162.576 277.993 161.491 278.079C159.857 278.208 158.25 278.557 156.651 278.906C156.133 279.019 155.584 279.148 155.208 279.522C154.845 279.882 154.708 280.405 154.575 280.899C154.375 281.65 154.152 282.396 153.906 283.135C153.737 283.648 153.513 284.207 153.025 284.439C152.544 284.667 151.936 284.475 151.573 284.085C151.21 283.694 151.058 283.148 151.024 282.616C150.989 282.084 151.059 281.551 151.08 281.018C151.099 280.508 151.065 279.969 150.792 279.538C150.203 278.609 148.708 278.465 148.331 277.432C148.129 276.878 148.355 276.231 148.782 275.825C149.21 275.42 149.801 275.227 150.387 275.165C150.973 275.102 151.505 275.122 152.144 275.139L152.455 273.905C150.929 273.764 149.753 273.82 148.369 274.418C147.632 274.737 146.807 275.423 146.498 276.183C145.953 277.523 146.282 278.636 146.35 279.248C146.608 281.605 146.175 282.878 145.801 285.22" fill="#00dfbf" fill-rule="nonzero" opacity="1" stroke="none" vectornator:layerName="path"/>
<g opacity="0.350006" vectornator:layerName="path">
<clipPath clip-rule="nonzero" id="ClipPath_26">
<path d="M142.946 315.972L186.138 315.972L186.138 273.84L142.946 273.84L142.946 315.972Z"/>
</clipPath>
<g clip-path="url(#ClipPath_26)">
<path d="M145.801 285.22C145.611 286.409 145.341 287.585 144.99 288.738C144.027 291.91 142.438 295.176 143.103 299.261C144.202 301.22 146.495 301.958 148.218 302.722C150.533 303.749 152.192 304.429 153.849 306.43C156.822 310.022 159.656 314.563 168.641 315.729C177.625 316.895 184.164 313.627 185.633 310.994C187.103 308.362 185.447 306.083 179.559 303.397C176.57 302.033 169.751 296.424 168.967 295.682C168.206 294.962 167.641 294.124 167.051 293.27C165.857 291.543 164.943 289.348 164.651 287.283C164.379 285.353 164.479 282.851 164.976 280.447C165.083 279.932 165.339 279.395 165.12 278.916C164.545 277.661 162.576 277.993 161.491 278.079C159.857 278.208 158.25 278.557 156.651 278.906C156.133 279.019 155.584 279.148 155.208 279.522C154.845 279.882 154.708 280.405 154.575 280.899C154.375 281.65 154.152 282.396 153.906 283.135C153.737 283.648 153.513 284.207 153.025 284.439C152.544 284.667 151.936 284.475 151.573 284.085C151.21 283.694 151.058 283.148 151.024 282.616C150.989 282.084 151.059 281.551 151.08 281.018C151.099 280.508 151.065 279.969 150.792 279.538C150.203 278.609 148.708 278.465 148.331 277.432C148.129 276.878 148.355 276.231 148.782 275.825C149.21 275.42 149.801 275.227 150.387 275.165C150.973 275.102 151.505 275.122 152.144 275.139L152.455 273.905C150.929 273.764 149.753 273.82 148.369 274.418C147.632 274.737 146.807 275.423 146.498 276.183C145.953 277.523 146.282 278.636 146.35 279.248C146.608 281.605 146.175 282.878 145.801 285.22" fill="#000000" fill-rule="nonzero" opacity="1" stroke="none" vectornator:layerName="path"/>
</g>
</g>
<path d="M162.679 314.172C162.679 314.172 162.22 307.8 168.676 303.934C175.132 300.067 179.341 301.998 181.485 303.334C184.039 304.924 187.768 308.35 185.83 311.15C183.738 314.174 180.172 315.784 173.357 316.322C166.541 316.86 162.679 314.172 162.679 314.172" fill="#fafafa" fill-rule="nonzero" opacity="1" stroke="none" vectornator:layerName="path"/>
<path d="M153.781 290.955C154.016 290.977 154.258 290.895 154.425 290.714C155.31 289.756 160.718 286.487 164.813 288.17C164.91 288.015 165.082 287.02 164.585 286.714C159.057 285.328 154.334 288.573 153.266 289.73C152.986 290.034 153.019 290.5 153.338 290.77C153.468 290.88 153.622 290.94 153.781 290.955" fill="#fafafa" fill-rule="nonzero" opacity="1" stroke="none" vectornator:layerName="path"/>
<path d="M166.527 292.492C166.538 291.778 166.12 291.143 165.867 290.965C161.211 290.297 156.528 293.228 155.504 294.338C155.224 294.641 155.258 295.106 155.578 295.378C155.707 295.488 155.862 295.548 156.021 295.562C156.256 295.583 156.497 295.501 156.664 295.321C157.523 294.388 162.845 291.299 166.527 292.492" fill="#fafafa" fill-rule="nonzero" opacity="1" stroke="none" vectornator:layerName="path"/>
<path d="M173.583 299.417C173.513 298.94 172.569 298.217 171.787 298.018C166.637 297.665 162.29 301.587 161.438 302.888C161.212 303.233 161.323 303.687 161.682 303.901C161.828 303.988 161.991 304.021 162.15 304.01C162.385 303.992 162.609 303.872 162.744 303.666C163.499 302.514 168.7 298.118 173.583 299.417" fill="#fafafa" fill-rule="nonzero" opacity="1" stroke="none" vectornator:layerName="path"/>
<path d="M158.696 300.041C158.932 300.035 159.162 299.925 159.306 299.726C160.063 298.68 164.577 294.722 169.229 295.916C169.261 295.509 168.407 294.704 167.993 294.589C163.376 294.171 158.924 297.664 158.039 298.886C157.797 299.221 157.885 299.679 158.234 299.91C158.376 300.004 158.536 300.045 158.696 300.041" fill="#fafafa" fill-rule="nonzero" opacity="1" stroke="none" vectornator:layerName="path"/>
<path d="M105.662 289.114C101.457 288.768 99.5751 289.107 100.042 293.593C100.509 298.079 100.557 301.518 100.557 301.518C100.557 301.518 108.054 302.051 111.616 300.254C115.178 298.456 111.987 289.634 105.662 289.114" fill="#00dfbf" fill-rule="nonzero" opacity="1" stroke="none" vectornator:layerName="path"/>
<g opacity="0.5" vectornator:layerName="path">
<clipPath clip-rule="nonzero" id="ClipPath_27">
<path d="M99.9722 301.591L113.1 301.591L113.1 289.014L99.9722 289.014L99.9722 301.591Z"/>
</clipPath>
<g clip-path="url(#ClipPath_27)">
<path d="M105.662 289.114C101.457 288.768 99.5751 289.107 100.042 293.593C100.509 298.079 100.557 301.518 100.557 301.518C100.557 301.518 108.054 302.051 111.616 300.254C115.178 298.456 111.987 289.634 105.662 289.114" fill="#000000" fill-rule="nonzero" opacity="1" stroke="none" vectornator:layerName="path"/>
</g>
</g>
<path d="M105.532 308.283C105.26 308.272 104.984 308.233 104.709 308.166C102.428 307.616 101.025 305.321 101.576 303.04C102.901 297.553 104.159 293.325 105.268 289.595C106.887 284.156 108.165 279.859 109.091 273.76C110.539 264.211 107.89 254.926 104.928 249.42C103.817 247.353 104.591 244.777 106.657 243.666C108.72 242.554 111.3 243.328 112.41 245.395C114.163 248.652 119.709 260.417 117.491 275.033C116.477 281.717 115.057 286.49 113.413 292.017C112.333 295.648 111.108 299.763 109.835 305.034C109.351 307.04 107.518 308.366 105.532 308.283" fill="#365a64" fill-rule="nonzero" opacity="1" stroke="none" vectornator:layerName="path"/>
<path d="M95.1387 313.593C95.1387 313.593 94.6567 315.356 95.0057 316.078C95.5487 317.203 98.7537 318.688 100.443 319.47C102.131 320.252 103.981 321.376 105.644 324.727C107.422 328.308 110.816 330.832 114.661 332.481C118.506 334.13 124.164 335.142 130.916 333.754C137.669 332.365 138.119 328.354 138.119 328.354C138.119 328.354 138.383 324.583 136.68 324.031C134.976 323.479 95.1387 313.593 95.1387 313.593" fill="#365a64" fill-rule="nonzero" opacity="1" stroke="none" vectornator:layerName="path"/>
<path d="M98.4238 299.679C98.1838 300.859 97.8648 302.022 97.4668 303.159C96.3708 306.288 94.6458 309.484 95.1388 313.594C96.1538 315.596 98.4138 316.431 100.103 317.267C102.373 318.39 104.002 319.139 105.573 321.208C108.393 324.922 111.033 329.578 119.961 331.121C128.889 332.664 135.559 329.674 137.137 327.105C138.716 324.536 137.157 322.191 131.388 319.259C128.459 317.77 121.882 311.88 121.13 311.106C120.4 310.354 119.871 309.493 119.317 308.615C118.196 306.839 117.375 304.608 117.171 302.532C116.98 300.593 117.186 298.098 117.783 295.717C117.911 295.206 118.19 294.68 117.991 294.193C117.469 292.915 115.489 293.164 114.401 293.204C112.763 293.264 111.142 293.545 109.53 293.826C109.007 293.918 108.454 294.024 108.062 294.381C107.685 294.726 107.526 295.242 107.373 295.73C107.14 296.473 106.886 297.209 106.611 297.937C106.42 298.442 106.173 298.992 105.675 299.202C105.184 299.41 104.586 299.193 104.239 298.787C103.893 298.382 103.764 297.829 103.752 297.296C103.74 296.763 103.833 296.234 103.875 295.702C103.916 295.194 103.904 294.654 103.65 294.212C103.1 293.259 101.612 293.052 101.279 292.004C101.101 291.442 101.355 290.804 101.799 290.417C102.242 290.03 102.841 289.863 103.429 289.825C104.017 289.787 104.548 289.83 105.186 289.874L105.549 288.653C104.029 288.449 102.853 288.455 101.445 288.994C100.694 289.282 99.8418 289.932 99.5008 290.679C98.8998 291.994 99.1828 293.12 99.2238 293.735C99.3818 296.101 98.8968 297.355 98.4238 299.679" fill="#00dfbf" fill-rule="nonzero" opacity="1" stroke="none" vectornator:layerName="path"/>
<g opacity="0.350006" vectornator:layerName="path">
<clipPath clip-rule="nonzero" id="ClipPath_28">
<path d="M95.0521 331.544L137.717 331.544L137.717 288.529L95.0521 288.529L95.0521 331.544Z"/>
</clipPath>
<g clip-path="url(#ClipPath_28)">
<path d="M98.4238 299.679C98.1838 300.859 97.8648 302.022 97.4668 303.159C96.3708 306.288 94.6458 309.484 95.1388 313.594C96.1538 315.596 98.4138 316.431 100.103 317.267C102.373 318.39 104.002 319.139 105.573 321.208C108.393 324.922 111.033 329.578 119.961 331.121C128.889 332.664 135.559 329.674 137.137 327.105C138.716 324.536 137.157 322.191 131.388 319.259C128.459 317.77 121.882 311.88 121.13 311.106C120.4 310.354 119.871 309.493 119.317 308.615C118.196 306.839 117.375 304.608 117.171 302.532C116.98 300.593 117.186 298.098 117.783 295.717C117.911 295.206 118.19 294.68 117.991 294.193C117.469 292.915 115.489 293.164 114.401 293.204C112.763 293.264 111.142 293.545 109.53 293.826C109.007 293.918 108.454 294.024 108.062 294.381C107.685 294.726 107.526 295.242 107.373 295.73C107.14 296.473 106.886 297.209 106.611 297.937C106.42 298.442 106.173 298.992 105.675 299.202C105.184 299.41 104.586 299.193 104.239 298.787C103.893 298.382 103.764 297.829 103.752 297.296C103.74 296.763 103.833 296.234 103.875 295.702C103.916 295.194 103.904 294.654 103.65 294.212C103.1 293.259 101.612 293.052 101.279 292.004C101.101 291.442 101.355 290.804 101.799 290.417C102.242 290.03 102.841 289.863 103.429 289.825C104.017 289.787 104.548 289.83 105.186 289.874L105.549 288.653C104.029 288.449 102.853 288.455 101.445 288.994C100.694 289.282 99.8418 289.932 99.5008 290.679C98.8998 291.994 99.1828 293.12 99.2238 293.735C99.3818 296.101 98.8968 297.355 98.4238 299.679" fill="#000000" fill-rule="nonzero" opacity="1" stroke="none" vectornator:layerName="path"/>
</g>
</g>
<path d="M114.07 329.315C114.07 329.315 113.879 322.929 120.492 319.337C127.105 315.746 131.229 317.853 133.315 319.277C135.799 320.974 139.382 324.553 137.328 327.269C135.11 330.203 131.479 331.662 124.648 331.912C117.816 332.163 114.07 329.315 114.07 329.315" fill="#fafafa" fill-rule="nonzero" opacity="1" stroke="none" vectornator:layerName="path"/>
<path d="M106.156 305.745C106.39 305.776 106.635 305.705 106.809 305.531C107.734 304.611 113.275 301.573 117.295 303.426C117.399 303.275 117.612 302.289 117.129 301.962C111.664 300.345 106.808 303.388 105.693 304.499C105.4 304.791 105.414 305.258 105.721 305.541C105.846 305.657 105.998 305.724 106.156 305.745" fill="#fafafa" fill-rule="nonzero" opacity="1" stroke="none" vectornator:layerName="path"/>
<path d="M118.826 307.815C118.867 307.102 118.476 306.45 118.231 306.262C113.607 305.398 108.805 308.13 107.735 309.196C107.443 309.487 107.457 309.953 107.765 310.237C107.89 310.353 108.042 310.419 108.2 310.44C108.434 310.472 108.679 310.4 108.853 310.226C109.75 309.331 115.198 306.468 118.826 307.815" fill="#fafafa" fill-rule="nonzero" opacity="1" stroke="none" vectornator:layerName="path"/>
<path d="M125.584 315.032C125.534 314.552 124.621 313.791 123.848 313.558C118.718 312.989 114.209 316.725 113.304 317.989C113.064 318.324 113.155 318.782 113.505 319.011C113.647 319.104 113.808 319.145 113.967 319.14C114.204 319.132 114.433 319.021 114.576 318.821C115.378 317.701 120.759 313.529 125.584 315.032" fill="#fafafa" fill-rule="nonzero" opacity="1" stroke="none" vectornator:layerName="path"/>
<path d="M110.685 315.029C110.921 315.032 111.155 314.932 111.308 314.739C112.108 313.727 116.785 309.962 121.382 311.351C121.431 310.945 120.612 310.105 120.204 309.973C115.608 309.362 111.013 312.663 110.077 313.848C109.821 314.172 109.89 314.633 110.229 314.879C110.367 314.978 110.525 315.027 110.685 315.029" fill="#fafafa" fill-rule="nonzero" opacity="1" stroke="none" vectornator:layerName="path"/>
<path d="M214.064 215.396C210.001 215.396 204.939 213.973 199.325 210.138C197.941 209.192 197.585 207.304 198.53 205.92C199.476 204.536 201.364 204.182 202.748 205.126C210.314 210.293 215.724 209.688 217.731 208.516C218.545 208.039 219.148 206.914 219.385 205.428C219.859 202.462 218.876 197.612 214.699 192.894C205.86 182.909 194.771 177.777 177.615 175.734C175.951 175.536 174.763 174.026 174.961 172.362C175.159 170.697 176.666 169.505 178.334 169.708C196.846 171.913 209.464 177.824 219.244 188.871C223.982 194.222 226.275 200.77 225.378 206.386C224.846 209.719 223.218 212.336 220.794 213.754C219.097 214.747 216.808 215.396 214.064 215.396" fill="#365a64" fill-rule="nonzero" opacity="1" stroke="none" vectornator:layerName="path"/>
<path d="M175.684 137.576C180.274 133.253 184.318 120.535 182.231 107.173C180.145 93.8107 167.798 81.3147 162.88 78.6117C157.963 75.9087 154.503 79.4047 155.841 84.3857C157.66 91.1607 159.926 106.406 147.281 113.118C147.281 113.118 149.153 123.072 155.67 130.973C162.187 138.874 175.684 137.576 175.684 137.576" fill="#00dfbf" fill-rule="nonzero" opacity="1" stroke="none" vectornator:layerName="path"/>
<g opacity="0.75" vectornator:layerName="path">
<clipPath clip-rule="nonzero" id="ClipPath_29">
<path d="M147.281 137.655L182.795 137.655L182.795 77.671L147.281 77.671L147.281 137.655Z"/>
</clipPath>
<g clip-path="url(#ClipPath_29)">
<path d="M175.684 137.576C180.274 133.253 184.318 120.535 182.231 107.173C180.145 93.8107 167.798 81.3147 162.88 78.6117C157.963 75.9087 154.503 79.4047 155.841 84.3857C157.66 91.1607 159.926 106.406 147.281 113.118C147.281 113.118 149.153 123.072 155.67 130.973C162.187 138.874 175.684 137.576 175.684 137.576" fill="#ffffff" fill-rule="nonzero" opacity="1" stroke="none" vectornator:layerName="path"/>
</g>
</g>
<path d="M158.521 87.0137C157.406 87.0137 156.301 86.8517 155.278 86.5257C154.958 86.4237 154.781 86.0827 154.883 85.7637C154.986 85.4447 155.328 85.2647 155.646 85.3687C159.627 86.6387 165 85.1557 166.346 80.9987C166.449 80.6817 166.787 80.5057 167.11 80.6087C167.429 80.7127 167.603 81.0547 167.5 81.3737C166.289 85.1137 162.341 87.0137 158.521 87.0137" fill="#00dfbf" fill-rule="nonzero" opacity="1" stroke="none" vectornator:layerName="path"/>
<path d="M163.069 95.4058C159.663 95.4058 157.3 94.0638 156.385 93.5458C156.093 93.3798 155.991 93.0088 156.157 92.7178C156.322 92.4248 156.693 92.3238 156.985 92.4888C158.852 93.5498 161.816 94.8408 165.988 93.8368C171.507 92.5098 172.686 89.2758 172.936 87.9468C172.997 87.6158 173.32 87.4028 173.645 87.4628C173.974 87.5248 174.19 87.8428 174.128 88.1708C173.834 89.7318 172.481 93.5238 166.273 95.0178C165.124 95.2938 164.053 95.4058 163.069 95.4058" fill="#00dfbf" fill-rule="nonzero" opacity="1" stroke="none" vectornator:layerName="path"/>
<path d="M169.352 105.927L169.305 105.927C162.178 105.913 157.763 102.351 155.765 100.228C155.535 99.9838 155.546 99.5998 155.79 99.3698C156.034 99.1408 156.417 99.1508 156.649 99.3958C158.513 101.376 162.636 104.701 169.307 104.713L169.353 104.713C177.145 104.713 179.46 101.053 180.45 99.4878C180.632 99.2038 181.007 99.1208 181.289 99.2998C181.572 99.4788 181.656 99.8538 181.477 100.136C180.474 101.722 177.813 105.927 169.352 105.927" fill="#00dfbf" fill-rule="nonzero" opacity="1" stroke="none" vectornator:layerName="path"/>
<path d="M172.534 118.134C170.308 118.134 167.903 117.804 165.447 116.976C159.707 115.042 155.562 111.714 153.13 107.089C152.973 106.792 153.087 106.425 153.385 106.269C153.679 106.114 154.049 106.226 154.204 106.523C156.519 110.926 160.324 113.968 165.836 115.826C173.443 118.389 180.703 115.84 182.727 113.972C182.973 113.745 183.357 113.761 183.584 114.006C183.811 114.252 183.796 114.635 183.549 114.863C181.96 116.333 177.735 118.134 172.534 118.134" fill="#00dfbf" fill-rule="nonzero" opacity="1" stroke="none" vectornator:layerName="path"/>
<g opacity="0.100006" vectornator:layerName="path">
<clipPath clip-rule="nonzero" id="ClipPath_30">
<path d="M147.281 129.416L164.278 129.416L164.278 77.686L147.281 77.686L147.281 129.416Z"/>
</clipPath>
<g clip-path="url(#ClipPath_30)">
<path d="M157.193 126.732C168.076 114.297 163.869 94.7084 161.193 89.0924C157.424 81.1874 159.02 77.7194 162.317 78.3394C157.705 76.1994 154.556 79.5984 155.84 84.3854C157.66 91.1614 159.926 106.405 147.281 113.118C147.281 113.118 148.92 121.824 154.464 129.416C155.376 128.648 156.287 127.766 157.193 126.732" fill="#000000" fill-rule="nonzero" opacity="1" stroke="none" vectornator:layerName="path"/>
</g>
</g>
<path d="M185.678 211.349C181.978 202.343 180.136 177.445 180.901 161.077C183.38 160.558 186.413 157.177 185.187 152.807C184.085 148.879 183.015 148.362 179.703 144.121C177.338 141.093 175.695 137.086 173.576 133.842C166.301 122.7 157.05 115.267 143.434 112.064C141.097 111.514 139.691 109.103 140.362 106.799C141.232 103.807 141.972 99.8826 141.059 97.0006C139.372 91.6846 136.014 91.1446 133.787 92.1286C131.56 93.1126 131.401 95.3236 132.069 98.8936C132.736 102.464 131.69 103.089 130.496 102.705C129.303 102.322 128.423 95.8336 120.113 92.7806C111.803 89.7276 106.189 93.7336 106.327 97.1646C106.478 100.908 109.202 101.2 114.967 101.824C117.418 102.09 120.024 103.121 121.682 104.805C124 107.161 122.716 111.145 119.49 111.864C98.3562 116.575 81.9512 134.184 77.3122 157.944C76.6092 161.574 76.1252 165.953 75.8312 170.846C75.8312 170.846 73.7142 166.867 69.1682 165.749C65.0862 164.745 63.4712 166.7 63.5252 168.521C63.5792 170.344 65.8522 171.213 68.1422 172.161C71.8132 173.681 72.4092 175.091 72.4092 175.091C72.4092 175.091 69.2362 174.554 66.7272 175.662C64.2192 176.771 63.5612 179.484 65.9882 180.517C67.3432 181.095 69.4092 180.06 71.5392 179.567C72.8802 179.256 75.3612 178.765 75.4992 180.375L75.5012 180.374C75.4522 184.137 75.4852 188.074 75.5942 192.116C75.9002 203.527 77.8992 211.341 76.0752 221.69C74.6942 229.533 67.8332 235.731 74.7212 242.204C77.8002 245.098 81.3972 245.324 84.2192 244.83C86.5282 244.426 88.6842 245.864 89.2202 248.146C89.9862 251.403 92.3422 255.358 98.9782 257.114C105.104 258.735 109.025 256.869 111.414 254.599C113.146 252.952 115.907 252.932 117.44 254.764C119.989 257.81 124.718 261.081 133.267 261.039C141.801 260.997 146.122 257.289 148.256 254.131C149.515 252.269 151.972 251.594 153.907 252.738C157.154 254.657 162.373 256.201 168.877 252.732C173.71 250.155 174.961 245.522 175.077 241.766C175.153 239.302 177.38 237.374 179.817 237.749C183.547 238.323 187.344 237.346 189.909 233.47C194.531 226.485 189.012 219.465 185.678 211.349" fill="#00dfbf" fill-rule="nonzero" opacity="1" stroke="none" vectornator:layerName="path"/>
<g opacity="0.100006" vectornator:layerName="path">
<clipPath clip-rule="nonzero" id="ClipPath_31">
<path d="M63.5239 261.039L140.795 261.039L140.795 91.728L63.5239 91.728L63.5239 261.039Z"/>
</clipPath>
<g clip-path="url(#ClipPath_31)">
<path d="M68.1421 172.16C71.8131 173.68 72.4091 175.09 72.4091 175.09C72.4091 175.09 69.2361 174.554 66.7271 175.662C64.2191 176.77 63.5611 179.484 65.9881 180.517C67.3431 181.094 69.4091 180.059 71.5391 179.566C72.8801 179.256 75.3611 178.764 75.4991 180.374L75.5011 180.374C75.4521 184.136 75.4851 188.074 75.5941 192.116C75.9001 203.527 77.8991 211.34 76.0761 221.69C74.6941 229.533 67.8331 235.731 74.7211 242.203C76.3361 243.722 78.0931 244.493 79.8071 244.825C79.6021 244.715 76.3761 239.526 80.1761 232.056C85.5171 221.555 85.1861 214.976 83.7871 193.692C82.0751 167.651 85.2711 156.521 94.7221 138.118C104.405 119.263 119.812 118.345 126.352 113.348C129.907 110.632 128.69 105.695 125.581 102.566C122.97 99.9362 118.89 98.8722 116.484 98.6242C111.216 98.0782 106.329 97.1652 107.316 94.5352C106.643 95.3632 106.292 96.2822 106.328 97.1652C106.478 100.907 109.202 101.2 114.967 101.824C117.418 102.089 120.024 103.121 121.682 104.805C124 107.16 122.716 111.145 119.49 111.864C98.3561 116.574 81.9521 134.183 77.3121 157.944C76.6091 161.574 76.1251 165.952 75.8311 170.846L75.8311 170.845C75.8311 170.845 73.7141 166.866 69.1681 165.748C65.0861 164.745 63.4711 166.699 63.5251 168.521C63.5791 170.343 65.8521 171.212 68.1421 172.16" fill="#000000" fill-rule="nonzero" opacity="1" stroke="none" vectornator:layerName="path"/>
<path d="M94.7217 248.249C92.0357 244.714 89.8687 244.134 86.1387 244.919C86.1327 244.92 86.1267 244.923 86.1197 244.925C87.6217 245.33 88.8377 246.515 89.2207 248.145C89.9857 251.402 92.3417 255.357 98.9777 257.113C103.305 258.258 106.527 257.661 108.89 256.413C99.2977 258.499 97.4077 251.784 94.7217 248.249" fill="#000000" fill-rule="nonzero" opacity="1" stroke="none" vectornator:layerName="path"/>
<path d="M140.795 259.809C136.069 260.429 131.639 259.362 126.658 255.714C121.288 251.781 118.664 252.148 115.342 253.479C115.341 253.479 115.34 253.48 115.339 253.48C116.132 253.662 116.871 254.084 117.44 254.764C119.988 257.81 124.717 261.081 133.267 261.039C136.273 261.025 138.746 260.549 140.795 259.809" fill="#000000" fill-rule="nonzero" opacity="1" stroke="none" vectornator:layerName="path"/>
<path d="M134.269 97.3379C134.09 94.1839 136.102 91.8019 138.577 92.8419C136.992 91.4969 135.171 91.5169 133.788 92.1289C131.561 93.1129 131.402 95.3229 132.069 98.8939C132.736 102.464 131.69 103.089 130.497 102.705C130.321 102.649 130.149 102.446 129.961 102.153L129.962 102.156C130.876 104.182 131.769 106.206 133.852 105.075C135.936 103.944 134.447 100.492 134.269 97.3379" fill="#000000" fill-rule="nonzero" opacity="1" stroke="none" vectornator:layerName="path"/>
</g>
</g>
<g opacity="0.199997" vectornator:layerName="path">
<clipPath clip-rule="nonzero" id="ClipPath_32">
<path d="M114.145 174.248L146.127 174.248L146.127 154.896L114.145 154.896L114.145 174.248Z"/>
</clipPath>
<g clip-path="url(#ClipPath_32)">
<path d="M114.146 169.431C114.146 169.431 115.3 174.316 120.652 174.248C126.004 174.18 126.592 171.748 128.785 168.433C130.978 165.118 135.679 164.369 139.767 164.301C143.854 164.232 147.68 159.593 145.488 154.897C145.488 154.897 146.045 158.247 142.77 160.388C139.494 162.529 135.135 160.6 130.842 162.655C126.549 164.709 126.179 169.331 123.025 170.802C119.872 172.272 116.05 171.155 114.146 169.431" fill="#000000" fill-rule="nonzero" opacity="1" stroke="none" vectornator:layerName="path"/>
</g>
</g>
<path d="M139.206 166.66C138.732 171.066 134.775 174.246 130.37 173.773C127.76 173.493 125.575 171.988 124.337 169.889C126.461 167.91 127.262 164.487 130.843 162.654C133.671 161.21 135.819 161.866 138.186 161.805C138.999 163.225 139.4 164.912 139.206 166.66" fill="#365a64" fill-rule="nonzero" opacity="1" stroke="none" vectornator:layerName="path"/>
<path d="M112.448 166.974C113.429 169.19 115.696 171.839 120.862 171.389C126.262 170.918 125.827 165.213 130.841 162.655C135.428 160.315 138.24 163.487 143.05 160.205C147.394 157.243 144.933 151.396 143.296 150.2" fill="none" opacity="1" stroke="#365a64" stroke-linecap="round" stroke-linejoin="miter" stroke-width="1.214" vectornator:layerName="path"/>
<path d="M137.117 165.788C137.102 167.005 136.103 167.979 134.887 167.963C133.67 167.948 132.696 166.949 132.711 165.732C132.726 164.516 133.725 163.542 134.942 163.558C136.159 163.573 137.133 164.572 137.117 165.788" fill="#f5f5f5" fill-rule="nonzero" opacity="1" stroke="none" vectornator:layerName="path"/>
<g opacity="0.199997" vectornator:layerName="path">
<clipPath clip-rule="nonzero" id="ClipPath_33">
<path d="M156.653 163.034L180.89 163.034L180.89 151.234L156.653 151.234L156.653 163.034Z"/>
</clipPath>
<g clip-path="url(#ClipPath_33)">
<path d="M180.89 161.353L180.357 161.078C180.357 161.078 178.474 160.95 177.403 159.96C176.332 158.97 175.128 155.729 171.705 154.896C168.282 154.063 166.367 155.733 162.571 155.894C158.775 156.055 157.497 153.432 156.736 151.234C156.334 154.963 157.39 157.462 160.095 158.56C163.098 159.778 168.527 157.22 170.848 158.56C173.17 159.9 174.513 162.671 177.403 162.992C179.073 163.178 180.191 162.721 180.851 162.301C180.863 161.982 180.876 161.666 180.89 161.353" fill="#000000" fill-rule="nonzero" opacity="1" stroke="none" vectornator:layerName="path"/>
</g>
</g>
<path d="M177.403 159.96C176.468 163.601 172.985 166.114 169.125 165.701C164.901 165.24 161.842 161.441 162.303 157.217C162.352 156.768 162.437 156.318 162.57 155.894C165.386 155.821 167.96 153.867 171.71 154.898C175.012 155.809 175.23 158.418 177.403 159.96" fill="#365a64" fill-rule="nonzero" opacity="1" stroke="none" vectornator:layerName="path"/>
<path d="M156.889 148.714C156.121 150.86 157.139 153.654 159.34 154.986C163.701 157.624 166.603 153.49 171.705 154.896C175.537 155.952 175.222 159.266 178.586 160.601C179.238 160.86 180.264 161.101 180.902 161.076" fill="none" opacity="1" stroke="#365a64" stroke-linecap="round" stroke-linejoin="miter" stroke-width="1.214" vectornator:layerName="path"/>
<path d="M174.072 159.55C174.058 160.687 173.125 161.596 171.988 161.582C170.851 161.568 169.942 160.634 169.956 159.498C169.97 158.362 170.904 157.451 172.04 157.466C173.176 157.48 174.086 158.413 174.072 159.55" fill="#f5f5f5" fill-rule="nonzero" opacity="1" stroke="none" vectornator:layerName="path"/>
<path d="M149.814 176.643C139.419 181.291 130.289 190.483 126.07 200.618C123.469 206.865 124.885 212.061 128.373 213.24C135.249 215.562 142.959 204.842 150.626 201.103C158.218 197.4 164.538 200.977 168.43 198.469C173.009 195.518 172.34 187.993 169.879 182.618C167.135 176.625 160.209 171.995 149.814 176.643" fill="#365a64" fill-rule="nonzero" opacity="1" stroke="none" vectornator:layerName="path"/>
<path d="M168.167 198.609C164.357 185.364 151.921 181.234 139.299 183.233C133.512 188.008 128.777 194.115 126.07 200.618C123.469 206.865 124.885 212.062 128.373 213.24C135.249 215.563 142.959 204.842 150.625 201.103C158.053 197.481 164.257 200.811 168.167 198.609" fill="#ff9090" fill-rule="nonzero" opacity="1" stroke="none" vectornator:layerName="path"/>
<g opacity="0.100006" vectornator:layerName="path">
<clipPath clip-rule="nonzero" id="ClipPath_34">
<path d="M124.732 213.566L159.956 213.566L159.956 182.759L124.732 182.759L124.732 213.566Z"/>
</clipPath>
<g clip-path="url(#ClipPath_34)">
<path d="M159.956 199.304C147.19 195.872 138.949 206.845 134.914 206.741C130.875 206.638 128.925 203.114 134.521 194.156C140.066 185.28 152.127 182.764 157.368 185.381C152.141 182.804 145.748 182.212 139.299 183.233C133.512 188.008 128.777 194.115 126.07 200.617C123.469 206.865 124.885 212.061 128.373 213.24C135.248 215.562 142.958 204.842 150.625 201.103C154.028 199.443 157.17 199.246 159.956 199.304" fill="#000000" fill-rule="nonzero" opacity="1" stroke="none" vectornator:layerName="path"/>
</g>
</g>
<path d="M164.858 186.624C162.395 187.692 162.428 190.964 160.399 197.91C160.257 198.398 160.118 198.864 159.982 199.311C163.405 199.389 166.288 199.851 168.431 198.47C168.869 198.187 169.25 197.85 169.603 197.487C170.101 192.217 167.463 185.494 164.858 186.624" fill="#f5f5f5" fill-rule="nonzero" opacity="1" stroke="none" vectornator:layerName="path"/>
<path d="M169.602 197.487C169.66 196.875 169.671 196.242 169.65 195.606C168.986 196.456 167.947 197.286 166.788 197.512C164.918 197.878 162.837 197.512 162.837 197.512C162.837 197.512 163.482 193.45 164.115 189.96C164.54 187.617 165.943 186.603 167.058 187.414C166.373 186.644 165.615 186.295 164.857 186.624C162.394 187.692 162.428 190.964 160.398 197.91C160.256 198.397 160.117 198.863 159.981 199.311C163.404 199.388 166.287 199.851 168.43 198.469C168.868 198.187 169.249 197.85 169.602 197.487" fill="#e1e1e1" fill-rule="nonzero" opacity="1" stroke="none" vectornator:layerName="path"/>
<path d="M138.466 195.254C136.003 196.323 136.036 199.594 134.007 206.541C133.119 209.58 132.362 211.818 131.769 213.424C135.436 212.719 139.287 209.418 143.202 206.246L143.202 206.245C143.755 200.957 141.092 194.115 138.466 195.254" fill="#f5f5f5" fill-rule="nonzero" opacity="1" stroke="none" vectornator:layerName="path"/>
<path d="M143.203 206.245C143.291 205.4 143.289 204.516 143.227 203.631C139.339 206.15 137.001 208.847 136.385 208.512C135.766 208.176 136.297 205.443 136.563 202.436C136.884 198.807 137.334 195.05 139.745 195.313C139.328 195.113 138.897 195.068 138.467 195.254C136.004 196.323 136.036 199.595 134.008 206.541C133.12 209.58 132.363 211.819 131.77 213.425C135.437 212.719 139.288 209.418 143.203 206.245Z" fill="#e1e1e1" fill-rule="nonzero" opacity="1" stroke="none" vectornator:layerName="path"/>
<path d="M53.7588 240.386C53.4388 240.386 53.1138 240.335 52.7938 240.227C51.2048 239.695 50.3488 237.974 50.8828 236.386C58.9598 212.298 70.8328 202.117 87.3678 193.5C88.8518 192.725 90.6858 193.302 91.4608 194.788C92.2358 196.274 91.6588 198.108 90.1728 198.882C74.5838 207.006 64.0988 216.063 56.6358 238.315C56.2098 239.584 55.0278 240.386 53.7588 240.386" fill="#365a64" fill-rule="nonzero" opacity="1" stroke="none" vectornator:layerName="path"/>
<path d="M51.6206 234.218C50.3476 237.517 48.4106 238.855 46.5576 240.798C44.7046 242.741 42.7126 243.931 40.7796 246.974C38.8476 250.017 37.9356 255.168 38.5156 257.575C38.8436 258.936 40.7286 258.951 40.8386 257.755C41.2486 253.322 41.9866 249.504 45.1016 247.126C45.1016 247.126 42.9926 251.404 42.7136 255.308C42.4346 259.213 42.9456 263.865 44.5636 264.099C46.1816 264.334 46.1156 262.676 45.8906 260.333C45.6646 257.989 45.4536 251.78 48.5756 247.352C48.5756 247.352 47.4626 253.894 48.5736 258.066C49.6836 262.238 51.8496 265.23 53.0476 264.717C54.2466 264.203 54.1886 263.411 52.8926 260.199C51.8866 257.706 51.9366 254.55 52.1916 251.874C52.4506 249.145 53.0766 247.237 54.9096 245.334C55.7066 244.506 56.5516 244.044 57.2206 243.852C57.9766 243.635 59.2796 244.071 59.9766 244.749C61.1046 245.847 62.0956 247.234 62.4056 249.51C62.6906 251.61 66.1606 251.802 64.8686 245.897C63.5756 239.992 56.3066 238.958 58.1306 234.14L51.6206 234.218Z" fill="#365a64" fill-rule="nonzero" opacity="1" stroke="none" vectornator:layerName="path"/>
<path d="M202.675 212.13L205.44 206.773C201.145 204.531 206.057 197.938 203.573 192.426C201.09 186.915 198.42 189.139 199.442 190.994C200.55 193.006 200.761 194.75 200.331 196.264C199.914 197.732 198.963 198.588 197.946 197.721C196.928 196.854 196.286 193.991 192.575 190.841C189.207 187.982 186.021 187.426 184.629 187.423C181.732 187.416 182.75 189.435 184.145 189.995C190.13 192.395 190.877 193.729 192.383 195.685C193.889 197.642 193.69 198.772 192.907 198.538C192.124 198.305 190.943 196.61 187.285 194.928C183.628 193.246 179.585 193.263 178.946 194.028C178.308 194.793 178.39 195.786 180.126 196.201C181.863 196.617 185.539 197.534 187.536 198.687C190.086 200.158 191.251 202.056 190.829 202.612C190.407 203.169 188.23 201.623 184.911 201.012C181.592 200.401 179.885 200.404 178.513 200.936C177.49 201.333 177.857 203.382 180.903 203.526C183.363 203.641 187.381 204.832 189.619 206.359C190.865 207.209 192.525 208.371 194.678 209.304C197.03 210.325 198.452 210.768 202.675 212.13" fill="#365a64" fill-rule="nonzero" opacity="1" stroke="none" vectornator:layerName="path"/>
<path d="M103.384 131.17C106.893 133.005 112.521 142.587 105.622 152.779C98.7238 162.97 88.9518 162.6 84.4678 161.828C81.6688 160.466 67.0148 154.114 66.2898 133.849C65.5658 113.583 78.0378 105.829 81.1588 104.034C84.2798 102.238 90.4958 101.696 89.7298 108.638C88.9638 115.58 88.2308 121.736 93.2748 126.2C97.2258 129.697 103.384 131.17 103.384 131.17" fill="#00dfbf" fill-rule="nonzero" opacity="1" stroke="none" vectornator:layerName="path"/>
<g opacity="0.75" vectornator:layerName="path">
<clipPath clip-rule="nonzero" id="ClipPath_35">
<path d="M66.2596 162.175L108.89 162.175L108.89 102.872L66.2596 102.872L66.2596 162.175Z"/>
</clipPath>
<g clip-path="url(#ClipPath_35)">
<path d="M103.384 131.17C106.893 133.005 112.521 142.587 105.622 152.779C98.7238 162.97 88.9518 162.6 84.4678 161.828C81.6688 160.466 67.0148 154.114 66.2898 133.849C65.5658 113.583 78.0378 105.829 81.1588 104.034C84.2798 102.238 90.4958 101.696 89.7298 108.638C88.9638 115.58 88.2308 121.736 93.2748 126.2C97.2258 129.697 103.384 131.17 103.384 131.17" fill="#ffffff" fill-rule="nonzero" opacity="1" stroke="none" vectornator:layerName="path"/>
</g>
</g>
<path d="M77.1279 157.519C76.5489 157.519 76.0529 157.492 75.6569 157.45C75.3239 157.414 75.0829 157.114 75.1189 156.781C75.1539 156.447 75.4589 156.21 75.7869 156.243C78.8339 156.571 88.1339 155.89 94.5569 148.883C101.133 141.706 101.395 134.721 100.455 130.125C100.389 129.797 100.6 129.476 100.929 129.409C101.252 129.343 101.578 129.553 101.645 129.882C102.641 134.755 102.374 142.149 95.4509 149.703C89.5219 156.172 81.2449 157.519 77.1279 157.519" fill="#00dfbf" fill-rule="nonzero" opacity="1" stroke="none" vectornator:layerName="path"/>
<path d="M73.4092 144.143C69.7352 144.143 67.0172 143.552 66.7882 143.5C66.4612 143.427 66.2552 143.102 66.3282 142.776C66.4032 142.449 66.7242 142.243 67.0542 142.316C67.5132 142.419 78.3872 144.781 86.1832 139.553C93.2402 134.821 93.8552 129.106 94.1182 126.666C94.1542 126.332 94.4682 126.098 94.7872 126.128C95.1202 126.164 95.3612 126.463 95.3252 126.797C95.0682 129.181 94.3862 135.514 86.8592 140.56C82.5672 143.439 77.4182 144.143 73.4092 144.143" fill="#00dfbf" fill-rule="nonzero" opacity="1" stroke="none" vectornator:layerName="path"/>
<path d="M76.311 127.987C71.082 127.987 67.664 126.342 65.926 125.204C65.646 125.02 65.568 124.644 65.752 124.363C65.936 124.081 66.311 124.006 66.592 124.188C68.611 125.51 73.073 127.565 80.305 126.459C86.013 125.586 88.486 123.75 90.308 121.895C90.541 121.655 90.925 121.654 91.165 121.888C91.405 122.123 91.408 122.507 91.173 122.746C89.205 124.749 86.547 126.732 80.487 127.658C78.985 127.888 77.594 127.987 76.311 127.987" fill="#00dfbf" fill-rule="nonzero" opacity="1" stroke="none" vectornator:layerName="path"/>
<path d="M82.6753 116.296C81.5423 116.296 80.3213 116.152 79.0173 115.813C75.8083 114.976 73.4113 113.138 72.0863 110.498C71.9373 110.199 72.0583 109.834 72.3573 109.684C72.6533 109.533 73.0203 109.653 73.1723 109.954C74.3513 112.306 76.4213 113.881 79.3233 114.638C83.8463 115.816 87.2673 114.418 89.3403 113.037C89.6153 112.85 89.9953 112.924 90.1823 113.206C90.3683 113.484 90.2923 113.861 90.0133 114.047C88.3323 115.167 85.8483 116.296 82.6753 116.296" fill="#00dfbf" fill-rule="nonzero" opacity="1" stroke="none" vectornator:layerName="path"/>
<g opacity="0.100006" vectornator:layerName="path">
<clipPath clip-rule="nonzero" id="ClipPath_36">
<path d="M66.2596 162.174L108.889 162.174L108.889 102.881L66.2596 102.881L66.2596 162.174Z"/>
</clipPath>
<g clip-path="url(#ClipPath_36)">
<path d="M92.3833 154.599C87.9583 154.195 82.4223 152.943 77.6303 145.594C72.8383 138.245 71.3473 122.941 75.7223 113.718C78.5993 107.651 84.3543 102.088 88.5003 103.946C86.6463 102.22 83.2273 102.845 81.1593 104.035C78.0383 105.83 65.5653 113.584 66.2903 133.849C67.0143 154.115 81.6693 160.467 84.4683 161.829C88.9513 162.601 98.7233 162.971 105.621 152.78C110.24 145.956 109.242 139.409 107.026 135.274L107.021 135.272C110.487 146.142 98.9553 155.198 92.3833 154.599" fill="#000000" fill-rule="nonzero" opacity="1" stroke="none" vectornator:layerName="path"/>
</g>
</g>
<path d="M101.456 152.5C101.456 152.5 96.2445 158.246 96.1985 163.775C96.1755 166.577 98.1945 169.139 101.456 169.139C104.718 169.139 106.737 166.577 106.713 163.775C106.667 158.246 101.456 152.5 101.456 152.5" fill="#fafafa" fill-rule="nonzero" opacity="1" stroke="none" vectornator:layerName="path"/>
</g>
</g>
<g opacity="1" vectornator:layerName="path">
<clipPath clip-rule="nonzero" id="ClipPath_37">
<path d="M0 0L500 0L500 500L0 500L0 0Z"/>
</clipPath>
<g clip-path="url(#ClipPath_37)">
<path d="M280.018 60.6948L215.537 97.8768C214.867 98.2638 214.324 99.2048 214.324 99.9788L214.324 140.516C214.324 141.29 214.87 142.226 215.544 142.606L219.891 145.043C220.565 145.424 221.655 145.418 222.325 145.031L286.806 107.849C287.476 107.462 288.019 106.521 288.019 105.747L288.019 65.2098C288.019 64.4358 287.473 63.5008 286.799 63.1198L282.452 60.6828C281.778 60.3028 280.688 60.3078 280.018 60.6948" fill="#00dfbf" fill-rule="nonzero" opacity="1" stroke="none" vectornator:layerName="path"/>
<path d="M221.111 144.331L221.111 103.793C221.111 103.02 221.654 102.079 222.324 101.692L286.806 64.5096C287.476 64.1226 288.019 64.4356 288.019 65.2096L288.019 105.748C288.019 106.521 287.476 107.462 286.806 107.85L222.324 145.031C221.654 145.418 221.111 145.105 221.111 144.331" fill="#00dfbf" fill-rule="nonzero" opacity="1" stroke="none" vectornator:layerName="path"/>
<g opacity="0.199997" vectornator:layerName="path">
<clipPath clip-rule="nonzero" id="ClipPath_38">
<path d="M214.322 145.332L222.324 145.332L222.324 98.74L214.322 98.74L214.322 145.332Z"/>
</clipPath>
<g clip-path="url(#ClipPath_38)">
<path d="M222.324 145.031C221.609 145.441 220.498 145.419 219.888 145.046L215.544 142.604C214.871 142.228 214.322 141.292 214.322 140.519L214.322 99.9778C214.322 99.5748 214.473 99.1318 214.708 98.7398L221.469 102.599C221.245 102.975 221.11 103.406 221.11 103.793L221.11 144.328C221.111 145.037 221.61 145.446 222.324 145.031" fill="#000000" fill-rule="nonzero" opacity="1" stroke="none" vectornator:layerName="path"/>
</g>
</g>
<g opacity="0.399994" vectornator:layerName="path">
<clipPath clip-rule="nonzero" id="ClipPath_39">
<path d="M214.703 102.599L288.003 102.599L288.003 60.399L214.703 60.399L214.703 102.599Z"/>
</clipPath>
<g clip-path="url(#ClipPath_39)">
<path d="M288.003 64.9897C287.907 64.3787 287.408 64.1597 286.803 64.5077L222.327 101.692C221.99 101.888 221.688 102.219 221.469 102.599L214.703 98.7397C214.922 98.3757 215.213 98.0617 215.538 97.8767L280.021 60.6927C280.688 60.3057 281.774 60.3007 282.452 60.6817L286.798 63.1177C287.408 63.4657 287.918 64.2667 288.003 64.9897" fill="#ffffff" fill-rule="nonzero" opacity="1" stroke="none" vectornator:layerName="path"/>
</g>
</g>
<path d="M214.322 114.382L204.558 124.314C204.037 124.844 204.218 125.633 204.742 125.975C204.943 126.106 211.502 129.862 211.502 129.862L221.111 118.292L214.322 114.382Z" fill="#00dfbf" fill-rule="nonzero" opacity="1" stroke="none" vectornator:layerName="path"/>
<g opacity="0.100006" vectornator:layerName="path">
<clipPath clip-rule="nonzero" id="ClipPath_40">
<path d="M204.246 129.862L221.111 129.862L221.111 114.382L204.246 114.382L204.246 129.862Z"/>
</clipPath>
<g clip-path="url(#ClipPath_40)">
<path d="M214.322 114.382L204.558 124.314C204.037 124.844 204.218 125.633 204.742 125.975C204.943 126.106 211.502 129.862 211.502 129.862L221.111 118.292L214.322 114.382Z" fill="#000000" fill-rule="nonzero" opacity="1" stroke="none" vectornator:layerName="path"/>
</g>
</g>
<path d="M221.111 118.292L211.347 128.225C210.626 128.958 211.248 130.187 212.266 130.04L221.111 128.764C222.06 128.764 222.06 118.292 221.111 118.292" fill="#00dfbf" fill-rule="nonzero" opacity="1" stroke="none" vectornator:layerName="path"/>
<path d="M237.491 115.265C237.504 114.901 237.517 114.496 237.53 114.053C237.542 113.609 237.549 113.161 237.549 112.704C237.549 112.247 237.542 111.81 237.53 111.391C237.517 110.972 237.504 110.598 237.491 110.269C237.465 109.787 237.397 109.371 237.288 109.017C237.179 108.664 237.025 108.392 236.824 108.2C236.625 108.008 236.378 107.908 236.082 107.9C235.784 107.893 235.437 108.004 235.038 108.235C234.638 108.465 234.291 108.756 233.995 109.104C233.698 109.454 233.45 109.84 233.252 110.263C233.051 110.686 232.897 111.137 232.788 111.616C232.678 112.096 232.61 112.591 232.585 113.101C232.559 113.453 232.542 113.844 232.536 114.274C232.53 114.704 232.527 115.147 232.527 115.603C232.527 116.06 232.53 116.503 232.536 116.936C232.542 117.369 232.559 117.756 232.585 118.098C232.637 119.059 232.859 119.754 233.252 120.181C233.644 120.609 234.24 120.592 235.038 120.131C235.836 119.67 236.429 119.001 236.815 118.124C237.201 117.246 237.427 116.293 237.491 115.265M229.012 115.016C229.05 113.883 229.207 112.746 229.485 111.605C229.762 110.464 230.155 109.385 230.663 108.367C231.172 107.349 231.789 106.418 232.518 105.571C233.244 104.725 234.085 104.027 235.038 103.477C235.977 102.934 236.815 102.664 237.549 102.666C238.283 102.669 238.904 102.885 239.413 103.315C239.922 103.745 240.314 104.371 240.592 105.193C240.868 106.014 241.026 106.969 241.065 108.057C241.091 108.894 241.103 109.78 241.103 110.711C241.103 111.643 241.091 112.523 241.065 113.351C241.026 114.483 240.868 115.619 240.592 116.761C240.314 117.902 239.922 118.987 239.413 120.015C238.904 121.041 238.283 121.975 237.549 122.815C236.815 123.655 235.977 124.348 235.038 124.89C234.085 125.44 233.244 125.717 232.518 125.72C231.789 125.724 231.172 125.506 230.663 125.066C230.155 124.626 229.762 123.995 229.485 123.174C229.207 122.352 229.05 121.397 229.012 120.31C228.985 119.512 228.972 118.647 228.972 117.715C228.972 116.783 228.985 115.883 229.012 115.016" fill="#365a64" fill-rule="nonzero" opacity="1" stroke="none" vectornator:layerName="path"/>
<path d="M246.144 111.458C246.183 112.189 246.36 112.677 246.675 112.92C246.991 113.166 247.407 113.138 247.922 112.841C248.436 112.543 248.852 112.091 249.168 111.482C249.483 110.874 249.66 110.182 249.699 109.406C249.724 109.094 249.737 108.749 249.737 108.373C249.737 107.996 249.724 107.666 249.699 107.384C249.66 106.653 249.483 106.166 249.168 105.921C248.852 105.677 248.436 105.704 247.922 106.001C247.407 106.298 246.991 106.752 246.675 107.36C246.36 107.968 246.183 108.661 246.144 109.437C246.118 109.748 246.106 110.092 246.106 110.469C246.106 110.846 246.118 111.176 246.144 111.458M253.176 105.258C253.188 105.547 253.195 105.925 253.195 106.391C253.195 106.857 253.188 107.243 253.176 107.548C253.149 108.514 253.008 109.488 252.751 110.47C252.492 111.451 252.139 112.383 251.688 113.269C251.237 114.153 250.694 114.958 250.056 115.683C249.418 116.408 248.707 116.998 247.922 117.451C247.136 117.904 246.424 118.137 245.787 118.147C245.15 118.159 244.605 117.982 244.154 117.618C243.704 117.253 243.35 116.729 243.092 116.046C242.835 115.362 242.694 114.551 242.667 113.614C242.654 113.324 242.648 112.946 242.648 112.48C242.648 112.015 242.654 111.629 242.667 111.325C242.68 110.365 242.816 109.395 243.073 108.414C243.331 107.432 243.688 106.497 244.145 105.609C244.602 104.72 245.15 103.908 245.787 103.174C246.424 102.439 247.136 101.844 247.922 101.391C248.707 100.937 249.418 100.71 250.056 100.709C250.694 100.708 251.241 100.888 251.698 101.249C252.154 101.609 252.51 102.132 252.76 102.821C253.011 103.509 253.149 104.32 253.176 105.258" fill="#365a64" fill-rule="nonzero" opacity="1" stroke="none" vectornator:layerName="path"/>
<path d="M261.927 102.168C261.965 101.59 261.965 101.035 261.927 100.502C261.887 99.831 261.74 99.312 261.483 98.945C261.224 98.578 260.793 98.569 260.188 98.919C259.905 99.083 259.659 99.293 259.453 99.551C259.248 99.809 259.077 100.091 258.943 100.397C258.807 100.703 258.7 101.017 258.623 101.339C258.546 101.662 258.494 101.979 258.469 102.291C258.443 102.604 258.43 102.957 258.43 103.354C258.43 103.751 258.443 104.09 258.469 104.373C258.494 104.655 258.546 104.913 258.623 105.146C258.7 105.378 258.807 105.57 258.943 105.721C259.077 105.87 259.248 105.955 259.453 105.975C259.659 105.995 259.905 105.922 260.188 105.759C260.793 105.409 261.224 104.903 261.483 104.238C261.74 103.575 261.887 102.884 261.927 102.168M261.057 109.867C260.684 110.083 260.356 110.213 260.073 110.257C259.789 110.302 259.544 110.294 259.338 110.235C259.133 110.175 258.958 110.083 258.817 109.956C258.675 109.83 258.558 109.704 258.469 109.577L258.469 115.912C258.469 116.129 258.417 116.347 258.315 116.566C258.211 116.784 258.089 116.934 257.948 117.015L255.513 118.42C255.371 118.502 255.249 118.494 255.146 118.396C255.043 118.295 254.991 118.137 254.991 117.918L254.991 98.409C254.991 98.191 255.043 97.974 255.146 97.756C255.249 97.538 255.371 97.387 255.513 97.305L257.851 95.956C257.992 95.875 258.114 95.884 258.218 95.982C258.321 96.082 258.372 96.24 258.372 96.458L258.372 97.142C258.488 96.877 258.614 96.596 258.749 96.3C258.884 96.004 259.051 95.714 259.251 95.43C259.45 95.147 259.696 94.866 259.985 94.59C260.276 94.314 260.632 94.052 261.057 93.807C261.637 93.472 262.184 93.291 262.699 93.261C263.213 93.232 263.665 93.387 264.051 93.73C264.438 94.071 264.749 94.6 264.989 95.314C265.227 96.03 265.358 96.965 265.384 98.119C265.397 98.41 265.404 98.807 265.404 99.313C265.404 99.818 265.397 100.224 265.384 100.528C265.358 101.713 265.227 102.8 264.989 103.79C264.749 104.781 264.438 105.669 264.051 106.458C263.665 107.246 263.213 107.928 262.699 108.502C262.184 109.078 261.637 109.533 261.057 109.867" fill="#365a64" fill-rule="nonzero" opacity="1" stroke="none" vectornator:layerName="path"/>
<path d="M272.917 98.0825C272.917 97.8645 272.869 97.7235 272.771 97.6605C272.676 97.5975 272.512 97.5935 272.28 97.6475C272.047 97.7035 271.742 97.7995 271.361 97.9395C270.982 98.0795 270.509 98.2345 269.942 98.4025C268.964 98.6895 268.21 98.5695 267.683 98.0415C267.153 97.5145 266.891 96.5765 266.891 95.2285C266.891 94.5535 266.999 93.8665 267.218 93.1655C267.437 92.4635 267.743 91.7815 268.136 91.1185C268.528 90.4555 269.002 89.8405 269.557 89.2715C270.109 88.7055 270.728 88.2235 271.41 87.8295C272.08 87.4425 272.697 87.2105 273.265 87.1305C273.831 87.0525 274.319 87.0865 274.732 87.2355C275.145 87.3845 275.47 87.6425 275.708 88.0105C275.946 88.3785 276.078 88.8025 276.104 89.2835C276.116 89.4945 276.068 89.7105 275.959 89.9325C275.849 90.1545 275.724 90.3055 275.582 90.3875L273.283 91.7145C273.142 91.7965 273.029 91.8115 272.946 91.7615C272.862 91.7105 272.762 91.6595 272.646 91.6065C272.531 91.5545 272.379 91.5335 272.192 91.5415C272.006 91.5505 271.744 91.6515 271.41 91.8455C271.114 92.0165 270.867 92.2235 270.666 92.4675C270.466 92.7125 270.367 92.9825 270.367 93.2795C270.367 93.4985 270.398 93.6475 270.464 93.7295C270.528 93.8115 270.657 93.8315 270.85 93.7885C271.044 93.7475 271.313 93.6655 271.661 93.5435C272.01 93.4225 272.466 93.2685 273.033 93.0795C274.204 92.6995 275.058 92.8175 275.593 93.4305C276.127 94.0435 276.394 94.9455 276.394 96.1345C276.394 96.8095 276.284 97.5015 276.065 98.2125C275.847 98.9245 275.524 99.6255 275.1 100.317C274.675 101.007 274.16 101.658 273.555 102.265C272.948 102.872 272.26 103.399 271.488 103.845C270.715 104.291 270.035 104.548 269.45 104.619C268.863 104.69 268.37 104.633 267.972 104.447C267.573 104.26 267.267 103.981 267.055 103.608C266.842 103.235 266.723 102.818 266.696 102.358C266.685 102.147 266.732 101.93 266.842 101.708C266.951 101.487 267.076 101.334 267.218 101.253L269.614 99.8705C269.755 99.7885 269.858 99.7845 269.923 99.8555C269.987 99.9285 270.07 99.9995 270.174 100.067C270.276 100.137 270.425 100.17 270.617 100.168C270.812 100.165 271.102 100.052 271.488 99.8295C271.874 99.6065 272.208 99.3345 272.491 99.0125C272.774 98.6905 272.917 98.3805 272.917 98.0825" fill="#365a64" fill-rule="nonzero" opacity="1" stroke="none" vectornator:layerName="path"/>
<path d="M281.629 96.8896C281.629 97.1076 281.576 97.3256 281.474 97.5436C281.37 97.7626 281.248 97.9116 281.108 97.9936L278.673 99.3986C278.531 99.4806 278.408 99.4726 278.306 99.3726C278.202 99.2736 278.152 99.1156 278.152 98.8966L278.152 95.8926C278.152 95.6756 278.202 95.4576 278.306 95.2386C278.408 95.0206 278.531 94.8716 278.673 94.7896L281.108 93.3846C281.248 93.3026 281.37 93.3106 281.474 93.4096C281.576 93.5096 281.629 93.6676 281.629 93.8866L281.629 96.8896ZM281.629 90.4956C281.629 90.7136 281.576 90.9316 281.474 91.1496C281.37 91.3686 281.248 91.5176 281.108 91.5986L278.673 93.0046C278.531 93.0866 278.408 93.0776 278.306 92.9786C278.202 92.8806 278.152 92.7206 278.152 92.5026L278.152 79.6856C278.152 79.4676 278.202 79.2486 278.306 79.0316C278.408 78.8126 278.531 78.6626 278.673 78.5806L281.108 77.1756C281.248 77.0936 281.37 77.1026 281.474 77.2026C281.576 77.3006 281.629 77.4596 281.629 77.6786L281.629 90.4956Z" fill="#365a64" fill-rule="nonzero" opacity="1" stroke="none" vectornator:layerName="path"/>
</g>
</g>
</g>
</g>
</svg>
